<?xml version="1.0" encoding="utf-8" standalone="no"?>
<!DOCTYPE svg PUBLIC "-//W3C//DTD SVG 1.1//EN"
  "http://www.w3.org/Graphics/SVG/1.1/DTD/svg11.dtd">
<svg height="432pt" version="1.1" viewBox="0 0 1440 432" width="1440pt" xmlns="http://www.w3.org/2000/svg" xmlns:xlink="http://www.w3.org/1999/xlink">
 <metadata>
  <rdf:RDF xmlns:cc="http://creativecommons.org/ns#" xmlns:dc="http://purl.org/dc/elements/1.1/" xmlns:rdf="http://www.w3.org/1999/02/22-rdf-syntax-ns#">
   <cc:Work>
    <dc:type rdf:resource="http://purl.org/dc/dcmitype/StillImage"/>
    <dc:date>2021-12-15T21:09:07.471015</dc:date>
    <dc:format>image/svg+xml</dc:format>
    <dc:creator>
     <cc:Agent>
      <dc:title>Matplotlib v3.4.3, https://matplotlib.org/</dc:title>
     </cc:Agent>
    </dc:creator>
   </cc:Work>
  </rdf:RDF>
 </metadata>
 <defs>
  <style type="text/css">*{stroke-linecap:butt;stroke-linejoin:round;}</style>
 </defs>
 <g id="figure_1">
  <g id="patch_1">
   <path d="M 0 432 
L 1440 432 
L 1440 0 
L 0 0 
z
" style="fill:#ffffff;"/>
  </g>
  <g id="axes_1">
   <g id="text_1">
    <!-- Type ratio among the platforms -->
    <g transform="translate(643.48875 45.84)scale(0.12 -0.12)">
     <defs>
      <path d="M -19 4666 
L 3928 4666 
L 3928 4134 
L 2272 4134 
L 2272 0 
L 1638 0 
L 1638 4134 
L -19 4134 
L -19 4666 
z
" id="DejaVuSans-54" transform="scale(0.015625)"/>
      <path d="M 2059 -325 
Q 1816 -950 1584 -1140 
Q 1353 -1331 966 -1331 
L 506 -1331 
L 506 -850 
L 844 -850 
Q 1081 -850 1212 -737 
Q 1344 -625 1503 -206 
L 1606 56 
L 191 3500 
L 800 3500 
L 1894 763 
L 2988 3500 
L 3597 3500 
L 2059 -325 
z
" id="DejaVuSans-79" transform="scale(0.015625)"/>
      <path d="M 1159 525 
L 1159 -1331 
L 581 -1331 
L 581 3500 
L 1159 3500 
L 1159 2969 
Q 1341 3281 1617 3432 
Q 1894 3584 2278 3584 
Q 2916 3584 3314 3078 
Q 3713 2572 3713 1747 
Q 3713 922 3314 415 
Q 2916 -91 2278 -91 
Q 1894 -91 1617 61 
Q 1341 213 1159 525 
z
M 3116 1747 
Q 3116 2381 2855 2742 
Q 2594 3103 2138 3103 
Q 1681 3103 1420 2742 
Q 1159 2381 1159 1747 
Q 1159 1113 1420 752 
Q 1681 391 2138 391 
Q 2594 391 2855 752 
Q 3116 1113 3116 1747 
z
" id="DejaVuSans-70" transform="scale(0.015625)"/>
      <path d="M 3597 1894 
L 3597 1613 
L 953 1613 
Q 991 1019 1311 708 
Q 1631 397 2203 397 
Q 2534 397 2845 478 
Q 3156 559 3463 722 
L 3463 178 
Q 3153 47 2828 -22 
Q 2503 -91 2169 -91 
Q 1331 -91 842 396 
Q 353 884 353 1716 
Q 353 2575 817 3079 
Q 1281 3584 2069 3584 
Q 2775 3584 3186 3129 
Q 3597 2675 3597 1894 
z
M 3022 2063 
Q 3016 2534 2758 2815 
Q 2500 3097 2075 3097 
Q 1594 3097 1305 2825 
Q 1016 2553 972 2059 
L 3022 2063 
z
" id="DejaVuSans-65" transform="scale(0.015625)"/>
      <path id="DejaVuSans-20" transform="scale(0.015625)"/>
      <path d="M 2631 2963 
Q 2534 3019 2420 3045 
Q 2306 3072 2169 3072 
Q 1681 3072 1420 2755 
Q 1159 2438 1159 1844 
L 1159 0 
L 581 0 
L 581 3500 
L 1159 3500 
L 1159 2956 
Q 1341 3275 1631 3429 
Q 1922 3584 2338 3584 
Q 2397 3584 2469 3576 
Q 2541 3569 2628 3553 
L 2631 2963 
z
" id="DejaVuSans-72" transform="scale(0.015625)"/>
      <path d="M 2194 1759 
Q 1497 1759 1228 1600 
Q 959 1441 959 1056 
Q 959 750 1161 570 
Q 1363 391 1709 391 
Q 2188 391 2477 730 
Q 2766 1069 2766 1631 
L 2766 1759 
L 2194 1759 
z
M 3341 1997 
L 3341 0 
L 2766 0 
L 2766 531 
Q 2569 213 2275 61 
Q 1981 -91 1556 -91 
Q 1019 -91 701 211 
Q 384 513 384 1019 
Q 384 1609 779 1909 
Q 1175 2209 1959 2209 
L 2766 2209 
L 2766 2266 
Q 2766 2663 2505 2880 
Q 2244 3097 1772 3097 
Q 1472 3097 1187 3025 
Q 903 2953 641 2809 
L 641 3341 
Q 956 3463 1253 3523 
Q 1550 3584 1831 3584 
Q 2591 3584 2966 3190 
Q 3341 2797 3341 1997 
z
" id="DejaVuSans-61" transform="scale(0.015625)"/>
      <path d="M 1172 4494 
L 1172 3500 
L 2356 3500 
L 2356 3053 
L 1172 3053 
L 1172 1153 
Q 1172 725 1289 603 
Q 1406 481 1766 481 
L 2356 481 
L 2356 0 
L 1766 0 
Q 1100 0 847 248 
Q 594 497 594 1153 
L 594 3053 
L 172 3053 
L 172 3500 
L 594 3500 
L 594 4494 
L 1172 4494 
z
" id="DejaVuSans-74" transform="scale(0.015625)"/>
      <path d="M 603 3500 
L 1178 3500 
L 1178 0 
L 603 0 
L 603 3500 
z
M 603 4863 
L 1178 4863 
L 1178 4134 
L 603 4134 
L 603 4863 
z
" id="DejaVuSans-69" transform="scale(0.015625)"/>
      <path d="M 1959 3097 
Q 1497 3097 1228 2736 
Q 959 2375 959 1747 
Q 959 1119 1226 758 
Q 1494 397 1959 397 
Q 2419 397 2687 759 
Q 2956 1122 2956 1747 
Q 2956 2369 2687 2733 
Q 2419 3097 1959 3097 
z
M 1959 3584 
Q 2709 3584 3137 3096 
Q 3566 2609 3566 1747 
Q 3566 888 3137 398 
Q 2709 -91 1959 -91 
Q 1206 -91 779 398 
Q 353 888 353 1747 
Q 353 2609 779 3096 
Q 1206 3584 1959 3584 
z
" id="DejaVuSans-6f" transform="scale(0.015625)"/>
      <path d="M 3328 2828 
Q 3544 3216 3844 3400 
Q 4144 3584 4550 3584 
Q 5097 3584 5394 3201 
Q 5691 2819 5691 2113 
L 5691 0 
L 5113 0 
L 5113 2094 
Q 5113 2597 4934 2840 
Q 4756 3084 4391 3084 
Q 3944 3084 3684 2787 
Q 3425 2491 3425 1978 
L 3425 0 
L 2847 0 
L 2847 2094 
Q 2847 2600 2669 2842 
Q 2491 3084 2119 3084 
Q 1678 3084 1418 2786 
Q 1159 2488 1159 1978 
L 1159 0 
L 581 0 
L 581 3500 
L 1159 3500 
L 1159 2956 
Q 1356 3278 1631 3431 
Q 1906 3584 2284 3584 
Q 2666 3584 2933 3390 
Q 3200 3197 3328 2828 
z
" id="DejaVuSans-6d" transform="scale(0.015625)"/>
      <path d="M 3513 2113 
L 3513 0 
L 2938 0 
L 2938 2094 
Q 2938 2591 2744 2837 
Q 2550 3084 2163 3084 
Q 1697 3084 1428 2787 
Q 1159 2491 1159 1978 
L 1159 0 
L 581 0 
L 581 3500 
L 1159 3500 
L 1159 2956 
Q 1366 3272 1645 3428 
Q 1925 3584 2291 3584 
Q 2894 3584 3203 3211 
Q 3513 2838 3513 2113 
z
" id="DejaVuSans-6e" transform="scale(0.015625)"/>
      <path d="M 2906 1791 
Q 2906 2416 2648 2759 
Q 2391 3103 1925 3103 
Q 1463 3103 1205 2759 
Q 947 2416 947 1791 
Q 947 1169 1205 825 
Q 1463 481 1925 481 
Q 2391 481 2648 825 
Q 2906 1169 2906 1791 
z
M 3481 434 
Q 3481 -459 3084 -895 
Q 2688 -1331 1869 -1331 
Q 1566 -1331 1297 -1286 
Q 1028 -1241 775 -1147 
L 775 -588 
Q 1028 -725 1275 -790 
Q 1522 -856 1778 -856 
Q 2344 -856 2625 -561 
Q 2906 -266 2906 331 
L 2906 616 
Q 2728 306 2450 153 
Q 2172 0 1784 0 
Q 1141 0 747 490 
Q 353 981 353 1791 
Q 353 2603 747 3093 
Q 1141 3584 1784 3584 
Q 2172 3584 2450 3431 
Q 2728 3278 2906 2969 
L 2906 3500 
L 3481 3500 
L 3481 434 
z
" id="DejaVuSans-67" transform="scale(0.015625)"/>
      <path d="M 3513 2113 
L 3513 0 
L 2938 0 
L 2938 2094 
Q 2938 2591 2744 2837 
Q 2550 3084 2163 3084 
Q 1697 3084 1428 2787 
Q 1159 2491 1159 1978 
L 1159 0 
L 581 0 
L 581 4863 
L 1159 4863 
L 1159 2956 
Q 1366 3272 1645 3428 
Q 1925 3584 2291 3584 
Q 2894 3584 3203 3211 
Q 3513 2838 3513 2113 
z
" id="DejaVuSans-68" transform="scale(0.015625)"/>
      <path d="M 603 4863 
L 1178 4863 
L 1178 0 
L 603 0 
L 603 4863 
z
" id="DejaVuSans-6c" transform="scale(0.015625)"/>
      <path d="M 2375 4863 
L 2375 4384 
L 1825 4384 
Q 1516 4384 1395 4259 
Q 1275 4134 1275 3809 
L 1275 3500 
L 2222 3500 
L 2222 3053 
L 1275 3053 
L 1275 0 
L 697 0 
L 697 3053 
L 147 3053 
L 147 3500 
L 697 3500 
L 697 3744 
Q 697 4328 969 4595 
Q 1241 4863 1831 4863 
L 2375 4863 
z
" id="DejaVuSans-66" transform="scale(0.015625)"/>
      <path d="M 2834 3397 
L 2834 2853 
Q 2591 2978 2328 3040 
Q 2066 3103 1784 3103 
Q 1356 3103 1142 2972 
Q 928 2841 928 2578 
Q 928 2378 1081 2264 
Q 1234 2150 1697 2047 
L 1894 2003 
Q 2506 1872 2764 1633 
Q 3022 1394 3022 966 
Q 3022 478 2636 193 
Q 2250 -91 1575 -91 
Q 1294 -91 989 -36 
Q 684 19 347 128 
L 347 722 
Q 666 556 975 473 
Q 1284 391 1588 391 
Q 1994 391 2212 530 
Q 2431 669 2431 922 
Q 2431 1156 2273 1281 
Q 2116 1406 1581 1522 
L 1381 1569 
Q 847 1681 609 1914 
Q 372 2147 372 2553 
Q 372 3047 722 3315 
Q 1072 3584 1716 3584 
Q 2034 3584 2315 3537 
Q 2597 3491 2834 3397 
z
" id="DejaVuSans-73" transform="scale(0.015625)"/>
     </defs>
     <use xlink:href="#DejaVuSans-54"/>
     <use x="45.458984" xlink:href="#DejaVuSans-79"/>
     <use x="104.638672" xlink:href="#DejaVuSans-70"/>
     <use x="168.115234" xlink:href="#DejaVuSans-65"/>
     <use x="229.638672" xlink:href="#DejaVuSans-20"/>
     <use x="261.425781" xlink:href="#DejaVuSans-72"/>
     <use x="302.539062" xlink:href="#DejaVuSans-61"/>
     <use x="363.818359" xlink:href="#DejaVuSans-74"/>
     <use x="403.027344" xlink:href="#DejaVuSans-69"/>
     <use x="430.810547" xlink:href="#DejaVuSans-6f"/>
     <use x="491.992188" xlink:href="#DejaVuSans-20"/>
     <use x="523.779297" xlink:href="#DejaVuSans-61"/>
     <use x="585.058594" xlink:href="#DejaVuSans-6d"/>
     <use x="682.470703" xlink:href="#DejaVuSans-6f"/>
     <use x="743.652344" xlink:href="#DejaVuSans-6e"/>
     <use x="807.03125" xlink:href="#DejaVuSans-67"/>
     <use x="870.507812" xlink:href="#DejaVuSans-20"/>
     <use x="902.294922" xlink:href="#DejaVuSans-74"/>
     <use x="941.503906" xlink:href="#DejaVuSans-68"/>
     <use x="1004.882812" xlink:href="#DejaVuSans-65"/>
     <use x="1066.40625" xlink:href="#DejaVuSans-20"/>
     <use x="1098.193359" xlink:href="#DejaVuSans-70"/>
     <use x="1161.669922" xlink:href="#DejaVuSans-6c"/>
     <use x="1189.453125" xlink:href="#DejaVuSans-61"/>
     <use x="1250.732422" xlink:href="#DejaVuSans-74"/>
     <use x="1289.941406" xlink:href="#DejaVuSans-66"/>
     <use x="1325.146484" xlink:href="#DejaVuSans-6f"/>
     <use x="1386.328125" xlink:href="#DejaVuSans-72"/>
     <use x="1425.691406" xlink:href="#DejaVuSans-6d"/>
     <use x="1523.103516" xlink:href="#DejaVuSans-73"/>
    </g>
   </g>
  </g>
  <g id="axes_2">
   <g id="patch_2">
    <path d="M 398.347826 218.16 
C 398.347826 206.478154 396.23848 194.891721 392.121497 183.959385 
C 388.004514 173.027048 381.947148 162.927391 374.241475 154.147406 
L 301.304348 218.16 
L 398.347826 218.16 
z
" style="fill:#1f77b4;"/>
   </g>
   <g id="patch_3">
    <path d="M 374.241475 154.147406 
C 360.630922 138.639292 342.422639 127.868962 322.27656 123.409786 
C 302.130481 118.950611 281.077827 121.030842 262.19405 129.346593 
L 301.304348 218.16 
L 374.241475 154.147406 
z
" style="fill:#ff7f0e;"/>
   </g>
   <g id="patch_4">
    <path d="M 262.19405 129.346593 
C 246.077989 136.443539 232.193536 147.795048 222.035272 162.179197 
C 211.877008 176.563346 205.822989 193.444804 204.524895 211.006382 
C 203.226801 228.567961 206.732943 246.156074 214.665905 261.877467 
C 222.598867 277.59886 234.66341 290.868433 249.560858 300.257795 
L 301.304348 218.16 
L 262.19405 129.346593 
z
" style="fill:#2ca02c;"/>
   </g>
   <g id="patch_5">
    <path d="M 249.560858 300.257795 
C 257.354627 305.169946 265.808321 308.947338 274.667073 311.476088 
C 283.525825 314.004837 292.699702 315.259273 301.912125 315.201575 
L 301.304348 218.16 
L 249.560858 300.257795 
z
" style="fill:#d62728;"/>
   </g>
   <g id="patch_6">
    <path d="M 301.912125 315.201575 
C 310.254724 315.149325 318.555868 314.02148 326.609988 311.845971 
C 334.664109 309.670462 342.404171 306.465396 349.638502 302.310141 
L 301.304348 218.16 
L 301.912125 315.201575 
z
" style="fill:#9467bd;"/>
   </g>
   <g id="patch_7">
    <path d="M 349.638502 302.310141 
C 354.420733 299.563323 358.960121 296.413839 363.207343 292.895908 
C 367.454565 289.377976 371.394183 285.504386 374.983392 281.317225 
L 301.304348 218.16 
L 349.638502 302.310141 
z
" style="fill:#8c564b;"/>
   </g>
   <g id="patch_8">
    <path d="M 374.983392 281.317225 
C 378.905595 276.741595 382.393049 271.81053 385.400532 266.587972 
C 388.408016 261.365414 390.922473 255.874035 392.911298 250.185042 
L 301.304348 218.16 
L 374.983392 281.317225 
z
" style="fill:#e377c2;"/>
   </g>
   <g id="patch_9">
    <path d="M 392.911298 250.185042 
C 394.707418 245.047278 396.068133 239.767507 396.979041 234.401604 
C 397.889949 229.035702 398.347826 223.602666 398.347826 218.159995 
L 301.304348 218.16 
L 392.911298 250.185042 
z
" style="fill:#7f7f7f;"/>
   </g>
   <g id="matplotlib.axis_1"/>
   <g id="matplotlib.axis_2"/>
   <g id="text_2">
    <!-- Comedy -->
    <g transform="translate(401.203212 183.298698)scale(0.1 -0.1)">
     <defs>
      <path d="M 4122 4306 
L 4122 3641 
Q 3803 3938 3442 4084 
Q 3081 4231 2675 4231 
Q 1875 4231 1450 3742 
Q 1025 3253 1025 2328 
Q 1025 1406 1450 917 
Q 1875 428 2675 428 
Q 3081 428 3442 575 
Q 3803 722 4122 1019 
L 4122 359 
Q 3791 134 3420 21 
Q 3050 -91 2638 -91 
Q 1578 -91 968 557 
Q 359 1206 359 2328 
Q 359 3453 968 4101 
Q 1578 4750 2638 4750 
Q 3056 4750 3426 4639 
Q 3797 4528 4122 4306 
z
" id="DejaVuSans-43" transform="scale(0.015625)"/>
      <path d="M 2906 2969 
L 2906 4863 
L 3481 4863 
L 3481 0 
L 2906 0 
L 2906 525 
Q 2725 213 2448 61 
Q 2172 -91 1784 -91 
Q 1150 -91 751 415 
Q 353 922 353 1747 
Q 353 2572 751 3078 
Q 1150 3584 1784 3584 
Q 2172 3584 2448 3432 
Q 2725 3281 2906 2969 
z
M 947 1747 
Q 947 1113 1208 752 
Q 1469 391 1925 391 
Q 2381 391 2643 752 
Q 2906 1113 2906 1747 
Q 2906 2381 2643 2742 
Q 2381 3103 1925 3103 
Q 1469 3103 1208 2742 
Q 947 2381 947 1747 
z
" id="DejaVuSans-64" transform="scale(0.015625)"/>
     </defs>
     <use xlink:href="#DejaVuSans-43"/>
     <use x="69.824219" xlink:href="#DejaVuSans-6f"/>
     <use x="131.005859" xlink:href="#DejaVuSans-6d"/>
     <use x="228.417969" xlink:href="#DejaVuSans-65"/>
     <use x="289.941406" xlink:href="#DejaVuSans-64"/>
     <use x="353.417969" xlink:href="#DejaVuSans-79"/>
    </g>
   </g>
   <g id="text_3">
    <!-- 11.46% -->
    <g transform="translate(363.974938 190.138821)scale(0.1 -0.1)">
     <defs>
      <path d="M 794 531 
L 1825 531 
L 1825 4091 
L 703 3866 
L 703 4441 
L 1819 4666 
L 2450 4666 
L 2450 531 
L 3481 531 
L 3481 0 
L 794 0 
L 794 531 
z
" id="DejaVuSans-31" transform="scale(0.015625)"/>
      <path d="M 684 794 
L 1344 794 
L 1344 0 
L 684 0 
L 684 794 
z
" id="DejaVuSans-2e" transform="scale(0.015625)"/>
      <path d="M 2419 4116 
L 825 1625 
L 2419 1625 
L 2419 4116 
z
M 2253 4666 
L 3047 4666 
L 3047 1625 
L 3713 1625 
L 3713 1100 
L 3047 1100 
L 3047 0 
L 2419 0 
L 2419 1100 
L 313 1100 
L 313 1709 
L 2253 4666 
z
" id="DejaVuSans-34" transform="scale(0.015625)"/>
      <path d="M 2113 2584 
Q 1688 2584 1439 2293 
Q 1191 2003 1191 1497 
Q 1191 994 1439 701 
Q 1688 409 2113 409 
Q 2538 409 2786 701 
Q 3034 994 3034 1497 
Q 3034 2003 2786 2293 
Q 2538 2584 2113 2584 
z
M 3366 4563 
L 3366 3988 
Q 3128 4100 2886 4159 
Q 2644 4219 2406 4219 
Q 1781 4219 1451 3797 
Q 1122 3375 1075 2522 
Q 1259 2794 1537 2939 
Q 1816 3084 2150 3084 
Q 2853 3084 3261 2657 
Q 3669 2231 3669 1497 
Q 3669 778 3244 343 
Q 2819 -91 2113 -91 
Q 1303 -91 875 529 
Q 447 1150 447 2328 
Q 447 3434 972 4092 
Q 1497 4750 2381 4750 
Q 2619 4750 2861 4703 
Q 3103 4656 3366 4563 
z
" id="DejaVuSans-36" transform="scale(0.015625)"/>
      <path d="M 4653 2053 
Q 4381 2053 4226 1822 
Q 4072 1591 4072 1178 
Q 4072 772 4226 539 
Q 4381 306 4653 306 
Q 4919 306 5073 539 
Q 5228 772 5228 1178 
Q 5228 1588 5073 1820 
Q 4919 2053 4653 2053 
z
M 4653 2450 
Q 5147 2450 5437 2106 
Q 5728 1763 5728 1178 
Q 5728 594 5436 251 
Q 5144 -91 4653 -91 
Q 4153 -91 3862 251 
Q 3572 594 3572 1178 
Q 3572 1766 3864 2108 
Q 4156 2450 4653 2450 
z
M 1428 4353 
Q 1159 4353 1004 4120 
Q 850 3888 850 3481 
Q 850 3069 1003 2837 
Q 1156 2606 1428 2606 
Q 1700 2606 1854 2837 
Q 2009 3069 2009 3481 
Q 2009 3884 1853 4118 
Q 1697 4353 1428 4353 
z
M 4250 4750 
L 4750 4750 
L 1831 -91 
L 1331 -91 
L 4250 4750 
z
M 1428 4750 
Q 1922 4750 2215 4408 
Q 2509 4066 2509 3481 
Q 2509 2891 2217 2550 
Q 1925 2209 1428 2209 
Q 931 2209 642 2551 
Q 353 2894 353 3481 
Q 353 4063 643 4406 
Q 934 4750 1428 4750 
z
" id="DejaVuSans-25" transform="scale(0.015625)"/>
     </defs>
     <use xlink:href="#DejaVuSans-31"/>
     <use x="63.623047" xlink:href="#DejaVuSans-31"/>
     <use x="127.246094" xlink:href="#DejaVuSans-2e"/>
     <use x="159.033203" xlink:href="#DejaVuSans-34"/>
     <use x="222.65625" xlink:href="#DejaVuSans-36"/>
     <use x="286.279297" xlink:href="#DejaVuSans-25"/>
    </g>
   </g>
   <g id="text_4">
    <!-- Drama -->
    <g transform="translate(324.373781 116.69414)scale(0.1 -0.1)">
     <defs>
      <path d="M 1259 4147 
L 1259 519 
L 2022 519 
Q 2988 519 3436 956 
Q 3884 1394 3884 2338 
Q 3884 3275 3436 3711 
Q 2988 4147 2022 4147 
L 1259 4147 
z
M 628 4666 
L 1925 4666 
Q 3281 4666 3915 4102 
Q 4550 3538 4550 2338 
Q 4550 1131 3912 565 
Q 3275 0 1925 0 
L 628 0 
L 628 4666 
z
" id="DejaVuSans-44" transform="scale(0.015625)"/>
     </defs>
     <use xlink:href="#DejaVuSans-44"/>
     <use x="77.001953" xlink:href="#DejaVuSans-72"/>
     <use x="118.115234" xlink:href="#DejaVuSans-61"/>
     <use x="179.394531" xlink:href="#DejaVuSans-6d"/>
     <use x="276.806641" xlink:href="#DejaVuSans-61"/>
    </g>
   </g>
   <g id="text_5">
    <!-- 20.14% -->
    <g transform="translate(301.114495 135.644183)scale(0.1 -0.1)">
     <defs>
      <path d="M 1228 531 
L 3431 531 
L 3431 0 
L 469 0 
L 469 531 
Q 828 903 1448 1529 
Q 2069 2156 2228 2338 
Q 2531 2678 2651 2914 
Q 2772 3150 2772 3378 
Q 2772 3750 2511 3984 
Q 2250 4219 1831 4219 
Q 1534 4219 1204 4116 
Q 875 4013 500 3803 
L 500 4441 
Q 881 4594 1212 4672 
Q 1544 4750 1819 4750 
Q 2544 4750 2975 4387 
Q 3406 4025 3406 3419 
Q 3406 3131 3298 2873 
Q 3191 2616 2906 2266 
Q 2828 2175 2409 1742 
Q 1991 1309 1228 531 
z
" id="DejaVuSans-32" transform="scale(0.015625)"/>
      <path d="M 2034 4250 
Q 1547 4250 1301 3770 
Q 1056 3291 1056 2328 
Q 1056 1369 1301 889 
Q 1547 409 2034 409 
Q 2525 409 2770 889 
Q 3016 1369 3016 2328 
Q 3016 3291 2770 3770 
Q 2525 4250 2034 4250 
z
M 2034 4750 
Q 2819 4750 3233 4129 
Q 3647 3509 3647 2328 
Q 3647 1150 3233 529 
Q 2819 -91 2034 -91 
Q 1250 -91 836 529 
Q 422 1150 422 2328 
Q 422 3509 836 4129 
Q 1250 4750 2034 4750 
z
" id="DejaVuSans-30" transform="scale(0.015625)"/>
     </defs>
     <use xlink:href="#DejaVuSans-32"/>
     <use x="63.623047" xlink:href="#DejaVuSans-30"/>
     <use x="127.246094" xlink:href="#DejaVuSans-2e"/>
     <use x="159.033203" xlink:href="#DejaVuSans-31"/>
     <use x="222.65625" xlink:href="#DejaVuSans-34"/>
     <use x="286.279297" xlink:href="#DejaVuSans-25"/>
    </g>
   </g>
   <g id="text_6">
    <!-- Other -->
    <g transform="translate(166.4532 213.050396)scale(0.1 -0.1)">
     <defs>
      <path d="M 2522 4238 
Q 1834 4238 1429 3725 
Q 1025 3213 1025 2328 
Q 1025 1447 1429 934 
Q 1834 422 2522 422 
Q 3209 422 3611 934 
Q 4013 1447 4013 2328 
Q 4013 3213 3611 3725 
Q 3209 4238 2522 4238 
z
M 2522 4750 
Q 3503 4750 4090 4092 
Q 4678 3434 4678 2328 
Q 4678 1225 4090 567 
Q 3503 -91 2522 -91 
Q 1538 -91 948 565 
Q 359 1222 359 2328 
Q 359 3434 948 4092 
Q 1538 4750 2522 4750 
z
" id="DejaVuSans-4f" transform="scale(0.015625)"/>
     </defs>
     <use xlink:href="#DejaVuSans-4f"/>
     <use x="78.710938" xlink:href="#DejaVuSans-74"/>
     <use x="117.919922" xlink:href="#DejaVuSans-68"/>
     <use x="181.298828" xlink:href="#DejaVuSans-65"/>
     <use x="242.822266" xlink:href="#DejaVuSans-72"/>
    </g>
   </g>
   <g id="text_7">
    <!-- 34.45% -->
    <g transform="translate(195.137997 214.481119)scale(0.1 -0.1)">
     <defs>
      <path d="M 2597 2516 
Q 3050 2419 3304 2112 
Q 3559 1806 3559 1356 
Q 3559 666 3084 287 
Q 2609 -91 1734 -91 
Q 1441 -91 1130 -33 
Q 819 25 488 141 
L 488 750 
Q 750 597 1062 519 
Q 1375 441 1716 441 
Q 2309 441 2620 675 
Q 2931 909 2931 1356 
Q 2931 1769 2642 2001 
Q 2353 2234 1838 2234 
L 1294 2234 
L 1294 2753 
L 1863 2753 
Q 2328 2753 2575 2939 
Q 2822 3125 2822 3475 
Q 2822 3834 2567 4026 
Q 2313 4219 1838 4219 
Q 1578 4219 1281 4162 
Q 984 4106 628 3988 
L 628 4550 
Q 988 4650 1302 4700 
Q 1616 4750 1894 4750 
Q 2613 4750 3031 4423 
Q 3450 4097 3450 3541 
Q 3450 3153 3228 2886 
Q 3006 2619 2597 2516 
z
" id="DejaVuSans-33" transform="scale(0.015625)"/>
      <path d="M 691 4666 
L 3169 4666 
L 3169 4134 
L 1269 4134 
L 1269 2991 
Q 1406 3038 1543 3061 
Q 1681 3084 1819 3084 
Q 2600 3084 3056 2656 
Q 3513 2228 3513 1497 
Q 3513 744 3044 326 
Q 2575 -91 1722 -91 
Q 1428 -91 1123 -41 
Q 819 9 494 109 
L 494 744 
Q 775 591 1075 516 
Q 1375 441 1709 441 
Q 2250 441 2565 725 
Q 2881 1009 2881 1497 
Q 2881 1984 2565 2268 
Q 2250 2553 1709 2553 
Q 1456 2553 1204 2497 
Q 953 2441 691 2322 
L 691 4666 
z
" id="DejaVuSans-35" transform="scale(0.015625)"/>
     </defs>
     <use xlink:href="#DejaVuSans-33"/>
     <use x="63.623047" xlink:href="#DejaVuSans-34"/>
     <use x="127.246094" xlink:href="#DejaVuSans-2e"/>
     <use x="159.033203" xlink:href="#DejaVuSans-34"/>
     <use x="222.65625" xlink:href="#DejaVuSans-35"/>
     <use x="286.279297" xlink:href="#DejaVuSans-25"/>
    </g>
   </g>
   <g id="text_8">
    <!-- Action -->
    <g transform="translate(240.684595 323.567072)scale(0.1 -0.1)">
     <defs>
      <path d="M 2188 4044 
L 1331 1722 
L 3047 1722 
L 2188 4044 
z
M 1831 4666 
L 2547 4666 
L 4325 0 
L 3669 0 
L 3244 1197 
L 1141 1197 
L 716 0 
L 50 0 
L 1831 4666 
z
" id="DejaVuSans-41" transform="scale(0.015625)"/>
      <path d="M 3122 3366 
L 3122 2828 
Q 2878 2963 2633 3030 
Q 2388 3097 2138 3097 
Q 1578 3097 1268 2742 
Q 959 2388 959 1747 
Q 959 1106 1268 751 
Q 1578 397 2138 397 
Q 2388 397 2633 464 
Q 2878 531 3122 666 
L 3122 134 
Q 2881 22 2623 -34 
Q 2366 -91 2075 -91 
Q 1284 -91 818 406 
Q 353 903 353 1747 
Q 353 2603 823 3093 
Q 1294 3584 2113 3584 
Q 2378 3584 2631 3529 
Q 2884 3475 3122 3366 
z
" id="DejaVuSans-63" transform="scale(0.015625)"/>
     </defs>
     <use xlink:href="#DejaVuSans-41"/>
     <use x="66.658203" xlink:href="#DejaVuSans-63"/>
     <use x="121.638672" xlink:href="#DejaVuSans-74"/>
     <use x="160.847656" xlink:href="#DejaVuSans-69"/>
     <use x="188.630859" xlink:href="#DejaVuSans-6f"/>
     <use x="249.8125" xlink:href="#DejaVuSans-6e"/>
    </g>
   </g>
   <g id="text_9">
    <!-- 9.05% -->
    <g transform="translate(261.447207 304.903854)scale(0.1 -0.1)">
     <defs>
      <path d="M 703 97 
L 703 672 
Q 941 559 1184 500 
Q 1428 441 1663 441 
Q 2288 441 2617 861 
Q 2947 1281 2994 2138 
Q 2813 1869 2534 1725 
Q 2256 1581 1919 1581 
Q 1219 1581 811 2004 
Q 403 2428 403 3163 
Q 403 3881 828 4315 
Q 1253 4750 1959 4750 
Q 2769 4750 3195 4129 
Q 3622 3509 3622 2328 
Q 3622 1225 3098 567 
Q 2575 -91 1691 -91 
Q 1453 -91 1209 -44 
Q 966 3 703 97 
z
M 1959 2075 
Q 2384 2075 2632 2365 
Q 2881 2656 2881 3163 
Q 2881 3666 2632 3958 
Q 2384 4250 1959 4250 
Q 1534 4250 1286 3958 
Q 1038 3666 1038 3163 
Q 1038 2656 1286 2365 
Q 1534 2075 1959 2075 
z
" id="DejaVuSans-39" transform="scale(0.015625)"/>
     </defs>
     <use xlink:href="#DejaVuSans-39"/>
     <use x="63.623047" xlink:href="#DejaVuSans-2e"/>
     <use x="95.410156" xlink:href="#DejaVuSans-30"/>
     <use x="159.033203" xlink:href="#DejaVuSans-35"/>
     <use x="222.65625" xlink:href="#DejaVuSans-25"/>
    </g>
   </g>
   <g id="text_10">
    <!-- Suspense -->
    <g transform="translate(329.140552 323.973944)scale(0.1 -0.1)">
     <defs>
      <path d="M 3425 4513 
L 3425 3897 
Q 3066 4069 2747 4153 
Q 2428 4238 2131 4238 
Q 1616 4238 1336 4038 
Q 1056 3838 1056 3469 
Q 1056 3159 1242 3001 
Q 1428 2844 1947 2747 
L 2328 2669 
Q 3034 2534 3370 2195 
Q 3706 1856 3706 1288 
Q 3706 609 3251 259 
Q 2797 -91 1919 -91 
Q 1588 -91 1214 -16 
Q 841 59 441 206 
L 441 856 
Q 825 641 1194 531 
Q 1563 422 1919 422 
Q 2459 422 2753 634 
Q 3047 847 3047 1241 
Q 3047 1584 2836 1778 
Q 2625 1972 2144 2069 
L 1759 2144 
Q 1053 2284 737 2584 
Q 422 2884 422 3419 
Q 422 4038 858 4394 
Q 1294 4750 2059 4750 
Q 2388 4750 2728 4690 
Q 3069 4631 3425 4513 
z
" id="DejaVuSans-53" transform="scale(0.015625)"/>
      <path d="M 544 1381 
L 544 3500 
L 1119 3500 
L 1119 1403 
Q 1119 906 1312 657 
Q 1506 409 1894 409 
Q 2359 409 2629 706 
Q 2900 1003 2900 1516 
L 2900 3500 
L 3475 3500 
L 3475 0 
L 2900 0 
L 2900 538 
Q 2691 219 2414 64 
Q 2138 -91 1772 -91 
Q 1169 -91 856 284 
Q 544 659 544 1381 
z
M 1991 3584 
L 1991 3584 
z
" id="DejaVuSans-75" transform="scale(0.015625)"/>
     </defs>
     <use xlink:href="#DejaVuSans-53"/>
     <use x="63.476562" xlink:href="#DejaVuSans-75"/>
     <use x="126.855469" xlink:href="#DejaVuSans-73"/>
     <use x="178.955078" xlink:href="#DejaVuSans-70"/>
     <use x="242.431641" xlink:href="#DejaVuSans-65"/>
     <use x="303.955078" xlink:href="#DejaVuSans-6e"/>
     <use x="367.333984" xlink:href="#DejaVuSans-73"/>
     <use x="419.433594" xlink:href="#DejaVuSans-65"/>
    </g>
   </g>
   <g id="text_11">
    <!-- 8.20% -->
    <g transform="translate(308.19583 305.236749)scale(0.1 -0.1)">
     <defs>
      <path d="M 2034 2216 
Q 1584 2216 1326 1975 
Q 1069 1734 1069 1313 
Q 1069 891 1326 650 
Q 1584 409 2034 409 
Q 2484 409 2743 651 
Q 3003 894 3003 1313 
Q 3003 1734 2745 1975 
Q 2488 2216 2034 2216 
z
M 1403 2484 
Q 997 2584 770 2862 
Q 544 3141 544 3541 
Q 544 4100 942 4425 
Q 1341 4750 2034 4750 
Q 2731 4750 3128 4425 
Q 3525 4100 3525 3541 
Q 3525 3141 3298 2862 
Q 3072 2584 2669 2484 
Q 3125 2378 3379 2068 
Q 3634 1759 3634 1313 
Q 3634 634 3220 271 
Q 2806 -91 2034 -91 
Q 1263 -91 848 271 
Q 434 634 434 1313 
Q 434 1759 690 2068 
Q 947 2378 1403 2484 
z
M 1172 3481 
Q 1172 3119 1398 2916 
Q 1625 2713 2034 2713 
Q 2441 2713 2670 2916 
Q 2900 3119 2900 3481 
Q 2900 3844 2670 4047 
Q 2441 4250 2034 4250 
Q 1625 4250 1398 4047 
Q 1172 3844 1172 3481 
z
" id="DejaVuSans-38" transform="scale(0.015625)"/>
     </defs>
     <use xlink:href="#DejaVuSans-38"/>
     <use x="63.623047" xlink:href="#DejaVuSans-2e"/>
     <use x="95.410156" xlink:href="#DejaVuSans-32"/>
     <use x="159.033203" xlink:href="#DejaVuSans-30"/>
     <use x="222.65625" xlink:href="#DejaVuSans-25"/>
    </g>
   </g>
   <g id="text_12">
    <!-- Documentary -->
    <g transform="translate(369.397642 303.128873)scale(0.1 -0.1)">
     <use xlink:href="#DejaVuSans-44"/>
     <use x="77.001953" xlink:href="#DejaVuSans-6f"/>
     <use x="138.183594" xlink:href="#DejaVuSans-63"/>
     <use x="193.164062" xlink:href="#DejaVuSans-75"/>
     <use x="256.542969" xlink:href="#DejaVuSans-6d"/>
     <use x="353.955078" xlink:href="#DejaVuSans-65"/>
     <use x="415.478516" xlink:href="#DejaVuSans-6e"/>
     <use x="478.857422" xlink:href="#DejaVuSans-74"/>
     <use x="518.066406" xlink:href="#DejaVuSans-61"/>
     <use x="579.345703" xlink:href="#DejaVuSans-72"/>
     <use x="620.458984" xlink:href="#DejaVuSans-79"/>
    </g>
   </g>
   <g id="text_13">
    <!-- 5.42% -->
    <g transform="translate(341.13345 288.181692)scale(0.1 -0.1)">
     <use xlink:href="#DejaVuSans-35"/>
     <use x="63.623047" xlink:href="#DejaVuSans-2e"/>
     <use x="95.410156" xlink:href="#DejaVuSans-34"/>
     <use x="159.033203" xlink:href="#DejaVuSans-32"/>
     <use x="222.65625" xlink:href="#DejaVuSans-25"/>
    </g>
   </g>
   <g id="text_14">
    <!-- Kids -->
    <g transform="translate(393.810151 274.190144)scale(0.1 -0.1)">
     <defs>
      <path d="M 628 4666 
L 1259 4666 
L 1259 2694 
L 3353 4666 
L 4166 4666 
L 1850 2491 
L 4331 0 
L 3500 0 
L 1259 2247 
L 1259 0 
L 628 0 
L 628 4666 
z
" id="DejaVuSans-4b" transform="scale(0.015625)"/>
     </defs>
     <use xlink:href="#DejaVuSans-4b"/>
     <use x="65.576172" xlink:href="#DejaVuSans-69"/>
     <use x="93.359375" xlink:href="#DejaVuSans-64"/>
     <use x="156.835938" xlink:href="#DejaVuSans-73"/>
    </g>
   </g>
   <g id="text_15">
    <!-- 5.93% -->
    <g transform="translate(361.10732 264.50455)scale(0.1 -0.1)">
     <use xlink:href="#DejaVuSans-35"/>
     <use x="63.623047" xlink:href="#DejaVuSans-2e"/>
     <use x="95.410156" xlink:href="#DejaVuSans-39"/>
     <use x="159.033203" xlink:href="#DejaVuSans-33"/>
     <use x="222.65625" xlink:href="#DejaVuSans-25"/>
    </g>
   </g>
   <g id="text_16">
    <!-- Special Interest -->
    <g transform="translate(406.546511 238.78514)scale(0.1 -0.1)">
     <defs>
      <path d="M 628 4666 
L 1259 4666 
L 1259 0 
L 628 0 
L 628 4666 
z
" id="DejaVuSans-49" transform="scale(0.015625)"/>
     </defs>
     <use xlink:href="#DejaVuSans-53"/>
     <use x="63.476562" xlink:href="#DejaVuSans-70"/>
     <use x="126.953125" xlink:href="#DejaVuSans-65"/>
     <use x="188.476562" xlink:href="#DejaVuSans-63"/>
     <use x="243.457031" xlink:href="#DejaVuSans-69"/>
     <use x="271.240234" xlink:href="#DejaVuSans-61"/>
     <use x="332.519531" xlink:href="#DejaVuSans-6c"/>
     <use x="360.302734" xlink:href="#DejaVuSans-20"/>
     <use x="392.089844" xlink:href="#DejaVuSans-49"/>
     <use x="421.582031" xlink:href="#DejaVuSans-6e"/>
     <use x="484.960938" xlink:href="#DejaVuSans-74"/>
     <use x="524.169922" xlink:href="#DejaVuSans-65"/>
     <use x="585.693359" xlink:href="#DejaVuSans-72"/>
     <use x="624.556641" xlink:href="#DejaVuSans-65"/>
     <use x="686.080078" xlink:href="#DejaVuSans-73"/>
     <use x="738.179688" xlink:href="#DejaVuSans-74"/>
    </g>
   </g>
   <g id="text_17">
    <!-- 5.35% -->
    <g transform="translate(371.527978 235.536819)scale(0.1 -0.1)">
     <use xlink:href="#DejaVuSans-35"/>
     <use x="63.623047" xlink:href="#DejaVuSans-2e"/>
     <use x="95.410156" xlink:href="#DejaVuSans-33"/>
     <use x="159.033203" xlink:href="#DejaVuSans-35"/>
     <use x="222.65625" xlink:href="#DejaVuSans-25"/>
    </g>
   </g>
   <g id="text_18">
    <!-- Amazon Prime -->
    <g transform="translate(257.966535 90.855652)scale(0.12 -0.12)">
     <defs>
      <path d="M 353 3500 
L 3084 3500 
L 3084 2975 
L 922 459 
L 3084 459 
L 3084 0 
L 275 0 
L 275 525 
L 2438 3041 
L 353 3041 
L 353 3500 
z
" id="DejaVuSans-7a" transform="scale(0.015625)"/>
      <path d="M 1259 4147 
L 1259 2394 
L 2053 2394 
Q 2494 2394 2734 2622 
Q 2975 2850 2975 3272 
Q 2975 3691 2734 3919 
Q 2494 4147 2053 4147 
L 1259 4147 
z
M 628 4666 
L 2053 4666 
Q 2838 4666 3239 4311 
Q 3641 3956 3641 3272 
Q 3641 2581 3239 2228 
Q 2838 1875 2053 1875 
L 1259 1875 
L 1259 0 
L 628 0 
L 628 4666 
z
" id="DejaVuSans-50" transform="scale(0.015625)"/>
     </defs>
     <use xlink:href="#DejaVuSans-41"/>
     <use x="68.408203" xlink:href="#DejaVuSans-6d"/>
     <use x="165.820312" xlink:href="#DejaVuSans-61"/>
     <use x="227.099609" xlink:href="#DejaVuSans-7a"/>
     <use x="279.589844" xlink:href="#DejaVuSans-6f"/>
     <use x="340.771484" xlink:href="#DejaVuSans-6e"/>
     <use x="404.150391" xlink:href="#DejaVuSans-20"/>
     <use x="435.9375" xlink:href="#DejaVuSans-50"/>
     <use x="494.490234" xlink:href="#DejaVuSans-72"/>
     <use x="535.603516" xlink:href="#DejaVuSans-69"/>
     <use x="563.386719" xlink:href="#DejaVuSans-6d"/>
     <use x="660.798828" xlink:href="#DejaVuSans-65"/>
    </g>
   </g>
  </g>
  <g id="axes_3">
   <g id="patch_10">
    <path d="M 689.478261 218.16 
C 689.478261 204.017612 686.386753 190.044681 680.420793 177.22226 
C 674.454834 164.399839 665.757396 153.03521 654.939133 143.926295 
L 592.434783 218.16 
L 689.478261 218.16 
z
" style="fill:#1f77b4;"/>
   </g>
   <g id="patch_11">
    <path d="M 654.939133 143.926295 
C 642.306806 133.289949 627.166112 126.052026 610.9558 122.90031 
C 594.745487 119.748594 577.995815 120.786182 562.298422 125.914477 
L 592.434783 218.16 
L 654.939133 143.926295 
z
" style="fill:#ff7f0e;"/>
   </g>
   <g id="patch_12">
    <path d="M 562.298422 125.914477 
C 549.255061 130.175708 537.262601 137.155344 527.114656 146.391499 
C 516.966711 155.627655 508.892181 166.911997 503.425407 179.497773 
L 592.434783 218.16 
L 562.298422 125.914477 
z
" style="fill:#2ca02c;"/>
   </g>
   <g id="patch_13">
    <path d="M 503.425407 179.497773 
C 498.340489 191.204428 495.614686 203.800064 495.404468 216.561646 
C 495.19425 229.323228 497.503718 242.001808 502.200301 253.869591 
C 506.896883 265.737375 513.888961 276.562849 522.775164 285.724593 
C 531.661368 294.886338 542.268347 302.205628 553.987226 307.262312 
L 592.434783 218.16 
L 503.425407 179.497773 
z
" style="fill:#d62728;"/>
   </g>
   <g id="patch_14">
    <path d="M 553.987226 307.262312 
C 558.141229 309.05476 562.415499 310.554523 566.77875 311.750623 
C 571.142001 312.946722 575.58356 313.836233 580.070916 314.412644 
L 592.434783 218.16 
L 553.987226 307.262312 
z
" style="fill:#9467bd;"/>
   </g>
   <g id="patch_15">
    <path d="M 580.070916 314.412644 
C 591.754906 315.913479 603.615128 315.27439 615.070187 312.526706 
C 626.525245 309.779022 637.384854 304.968386 647.116667 298.330619 
L 592.434783 218.16 
L 580.070916 314.412644 
z
" style="fill:#8c564b;"/>
   </g>
   <g id="patch_16">
    <path d="M 647.116667 298.330619 
C 651.585384 295.282646 655.791447 291.866372 659.690885 288.117511 
C 663.590323 284.36865 667.1695 280.300311 670.391 275.955024 
L 592.434783 218.16 
L 647.116667 298.330619 
z
" style="fill:#e377c2;"/>
   </g>
   <g id="patch_17">
    <path d="M 670.391 275.955024 
C 673.565983 271.672481 676.382681 267.135584 678.812488 262.390404 
C 681.242296 257.645224 683.276961 252.70788 684.89582 247.628512 
L 592.434783 218.16 
L 670.391 275.955024 
z
" style="fill:#7f7f7f;"/>
   </g>
   <g id="patch_18">
    <path d="M 684.89582 247.628512 
C 686.411915 242.871579 687.558651 238.004732 688.325808 233.071333 
C 689.092966 228.137934 689.478261 223.152681 689.478261 218.159991 
L 592.434783 218.16 
L 684.89582 247.628512 
z
" style="fill:#bcbd22;"/>
   </g>
   <g id="matplotlib.axis_3"/>
   <g id="matplotlib.axis_4"/>
   <g id="text_19">
    <!-- Animation -->
    <g transform="translate(689.219395 175.887861)scale(0.1 -0.1)">
     <use xlink:href="#DejaVuSans-41"/>
     <use x="68.408203" xlink:href="#DejaVuSans-6e"/>
     <use x="131.787109" xlink:href="#DejaVuSans-69"/>
     <use x="159.570312" xlink:href="#DejaVuSans-6d"/>
     <use x="256.982422" xlink:href="#DejaVuSans-61"/>
     <use x="318.261719" xlink:href="#DejaVuSans-74"/>
     <use x="357.470703" xlink:href="#DejaVuSans-69"/>
     <use x="385.253906" xlink:href="#DejaVuSans-6f"/>
     <use x="446.435547" xlink:href="#DejaVuSans-6e"/>
    </g>
   </g>
   <g id="text_20">
    <!-- 13.86% -->
    <g transform="translate(652.557349 184.075409)scale(0.1 -0.1)">
     <use xlink:href="#DejaVuSans-31"/>
     <use x="63.623047" xlink:href="#DejaVuSans-33"/>
     <use x="127.246094" xlink:href="#DejaVuSans-2e"/>
     <use x="159.033203" xlink:href="#DejaVuSans-38"/>
     <use x="222.65625" xlink:href="#DejaVuSans-36"/>
     <use x="286.279297" xlink:href="#DejaVuSans-25"/>
    </g>
   </g>
   <g id="text_21">
    <!-- Family -->
    <g transform="translate(612.807902 116.133716)scale(0.1 -0.1)">
     <defs>
      <path d="M 628 4666 
L 3309 4666 
L 3309 4134 
L 1259 4134 
L 1259 2759 
L 3109 2759 
L 3109 2228 
L 1259 2228 
L 1259 0 
L 628 0 
L 628 4666 
z
" id="DejaVuSans-46" transform="scale(0.015625)"/>
     </defs>
     <use xlink:href="#DejaVuSans-46"/>
     <use x="48.394531" xlink:href="#DejaVuSans-61"/>
     <use x="109.673828" xlink:href="#DejaVuSans-6d"/>
     <use x="207.085938" xlink:href="#DejaVuSans-69"/>
     <use x="234.869141" xlink:href="#DejaVuSans-6c"/>
     <use x="262.652344" xlink:href="#DejaVuSans-79"/>
    </g>
   </g>
   <g id="text_22">
    <!-- 16.16% -->
    <g transform="translate(590.038854 135.185654)scale(0.1 -0.1)">
     <use xlink:href="#DejaVuSans-31"/>
     <use x="63.623047" xlink:href="#DejaVuSans-36"/>
     <use x="127.246094" xlink:href="#DejaVuSans-2e"/>
     <use x="159.033203" xlink:href="#DejaVuSans-31"/>
     <use x="222.65625" xlink:href="#DejaVuSans-36"/>
     <use x="286.279297" xlink:href="#DejaVuSans-25"/>
    </g>
   </g>
   <g id="text_23">
    <!-- Comedy -->
    <g transform="translate(479.320143 141.974024)scale(0.1 -0.1)">
     <use xlink:href="#DejaVuSans-43"/>
     <use x="69.824219" xlink:href="#DejaVuSans-6f"/>
     <use x="131.005859" xlink:href="#DejaVuSans-6d"/>
     <use x="228.417969" xlink:href="#DejaVuSans-65"/>
     <use x="289.941406" xlink:href="#DejaVuSans-64"/>
     <use x="353.417969" xlink:href="#DejaVuSans-79"/>
    </g>
   </g>
   <g id="text_24">
    <!-- 13.45% -->
    <g transform="translate(514.581825 156.327724)scale(0.1 -0.1)">
     <use xlink:href="#DejaVuSans-31"/>
     <use x="63.623047" xlink:href="#DejaVuSans-33"/>
     <use x="127.246094" xlink:href="#DejaVuSans-2e"/>
     <use x="159.033203" xlink:href="#DejaVuSans-34"/>
     <use x="222.65625" xlink:href="#DejaVuSans-35"/>
     <use x="286.279297" xlink:href="#DejaVuSans-25"/>
    </g>
   </g>
   <g id="text_25">
    <!-- Other -->
    <g transform="translate(464.783102 260.199926)scale(0.1 -0.1)">
     <use xlink:href="#DejaVuSans-4f"/>
     <use x="78.710938" xlink:href="#DejaVuSans-74"/>
     <use x="117.919922" xlink:href="#DejaVuSans-68"/>
     <use x="181.298828" xlink:href="#DejaVuSans-65"/>
     <use x="242.822266" xlink:href="#DejaVuSans-72"/>
    </g>
   </g>
   <g id="text_26">
    <!-- 25.04% -->
    <g transform="translate(492.158905 253.058007)scale(0.1 -0.1)">
     <use xlink:href="#DejaVuSans-32"/>
     <use x="63.623047" xlink:href="#DejaVuSans-35"/>
     <use x="127.246094" xlink:href="#DejaVuSans-2e"/>
     <use x="159.033203" xlink:href="#DejaVuSans-30"/>
     <use x="222.65625" xlink:href="#DejaVuSans-34"/>
     <use x="286.279297" xlink:href="#DejaVuSans-25"/>
    </g>
   </g>
   <g id="text_27">
    <!-- Documentary -->
    <g transform="translate(496.249084 323.86906)scale(0.1 -0.1)">
     <use xlink:href="#DejaVuSans-44"/>
     <use x="77.001953" xlink:href="#DejaVuSans-6f"/>
     <use x="138.183594" xlink:href="#DejaVuSans-63"/>
     <use x="193.164062" xlink:href="#DejaVuSans-75"/>
     <use x="256.542969" xlink:href="#DejaVuSans-6d"/>
     <use x="353.955078" xlink:href="#DejaVuSans-65"/>
     <use x="415.478516" xlink:href="#DejaVuSans-6e"/>
     <use x="478.857422" xlink:href="#DejaVuSans-74"/>
     <use x="518.066406" xlink:href="#DejaVuSans-61"/>
     <use x="579.345703" xlink:href="#DejaVuSans-72"/>
     <use x="620.458984" xlink:href="#DejaVuSans-79"/>
    </g>
   </g>
   <g id="text_28">
    <!-- 4.45% -->
    <g transform="translate(553.46076 305.150936)scale(0.1 -0.1)">
     <use xlink:href="#DejaVuSans-34"/>
     <use x="63.623047" xlink:href="#DejaVuSans-2e"/>
     <use x="95.410156" xlink:href="#DejaVuSans-34"/>
     <use x="159.033203" xlink:href="#DejaVuSans-35"/>
     <use x="222.65625" xlink:href="#DejaVuSans-25"/>
    </g>
   </g>
   <g id="text_29">
    <!-- Action-Adventure -->
    <g transform="translate(617.333727 324.722751)scale(0.1 -0.1)">
     <defs>
      <path d="M 313 2009 
L 1997 2009 
L 1997 1497 
L 313 1497 
L 313 2009 
z
" id="DejaVuSans-2d" transform="scale(0.015625)"/>
      <path d="M 191 3500 
L 800 3500 
L 1894 563 
L 2988 3500 
L 3597 3500 
L 2284 0 
L 1503 0 
L 191 3500 
z
" id="DejaVuSans-76" transform="scale(0.015625)"/>
     </defs>
     <use xlink:href="#DejaVuSans-41"/>
     <use x="66.658203" xlink:href="#DejaVuSans-63"/>
     <use x="121.638672" xlink:href="#DejaVuSans-74"/>
     <use x="160.847656" xlink:href="#DejaVuSans-69"/>
     <use x="188.630859" xlink:href="#DejaVuSans-6f"/>
     <use x="249.8125" xlink:href="#DejaVuSans-6e"/>
     <use x="313.191406" xlink:href="#DejaVuSans-2d"/>
     <use x="347.025391" xlink:href="#DejaVuSans-41"/>
     <use x="413.683594" xlink:href="#DejaVuSans-64"/>
     <use x="477.160156" xlink:href="#DejaVuSans-76"/>
     <use x="536.339844" xlink:href="#DejaVuSans-65"/>
     <use x="597.863281" xlink:href="#DejaVuSans-6e"/>
     <use x="661.242188" xlink:href="#DejaVuSans-74"/>
     <use x="700.451172" xlink:href="#DejaVuSans-75"/>
     <use x="763.830078" xlink:href="#DejaVuSans-72"/>
     <use x="802.693359" xlink:href="#DejaVuSans-65"/>
    </g>
   </g>
   <g id="text_30">
    <!-- 11.56% -->
    <g transform="translate(593.741803 305.84941)scale(0.1 -0.1)">
     <use xlink:href="#DejaVuSans-31"/>
     <use x="63.623047" xlink:href="#DejaVuSans-31"/>
     <use x="127.246094" xlink:href="#DejaVuSans-2e"/>
     <use x="159.033203" xlink:href="#DejaVuSans-35"/>
     <use x="222.65625" xlink:href="#DejaVuSans-36"/>
     <use x="286.279297" xlink:href="#DejaVuSans-25"/>
    </g>
   </g>
   <g id="text_31">
    <!-- Animals &amp; Nature -->
    <g transform="translate(666.416495 297.872637)scale(0.1 -0.1)">
     <defs>
      <path d="M 1556 2509 
Q 1272 2256 1139 2004 
Q 1006 1753 1006 1478 
Q 1006 1022 1337 719 
Q 1669 416 2169 416 
Q 2466 416 2725 514 
Q 2984 613 3213 813 
L 1556 2509 
z
M 1997 2859 
L 3584 1234 
Q 3769 1513 3872 1830 
Q 3975 2147 3994 2503 
L 4575 2503 
Q 4538 2091 4375 1687 
Q 4213 1284 3922 891 
L 4794 0 
L 4006 0 
L 3559 459 
Q 3234 181 2878 45 
Q 2522 -91 2113 -91 
Q 1359 -91 881 339 
Q 403 769 403 1441 
Q 403 1841 612 2192 
Q 822 2544 1241 2853 
Q 1091 3050 1012 3245 
Q 934 3441 934 3628 
Q 934 4134 1281 4442 
Q 1628 4750 2203 4750 
Q 2463 4750 2720 4694 
Q 2978 4638 3244 4525 
L 3244 3956 
Q 2972 4103 2725 4179 
Q 2478 4256 2266 4256 
Q 1938 4256 1733 4082 
Q 1528 3909 1528 3634 
Q 1528 3475 1620 3314 
Q 1713 3153 1997 2859 
z
" id="DejaVuSans-26" transform="scale(0.015625)"/>
      <path d="M 628 4666 
L 1478 4666 
L 3547 763 
L 3547 4666 
L 4159 4666 
L 4159 0 
L 3309 0 
L 1241 3903 
L 1241 0 
L 628 0 
L 628 4666 
z
" id="DejaVuSans-4e" transform="scale(0.015625)"/>
     </defs>
     <use xlink:href="#DejaVuSans-41"/>
     <use x="68.408203" xlink:href="#DejaVuSans-6e"/>
     <use x="131.787109" xlink:href="#DejaVuSans-69"/>
     <use x="159.570312" xlink:href="#DejaVuSans-6d"/>
     <use x="256.982422" xlink:href="#DejaVuSans-61"/>
     <use x="318.261719" xlink:href="#DejaVuSans-6c"/>
     <use x="346.044922" xlink:href="#DejaVuSans-73"/>
     <use x="398.144531" xlink:href="#DejaVuSans-20"/>
     <use x="429.931641" xlink:href="#DejaVuSans-26"/>
     <use x="507.910156" xlink:href="#DejaVuSans-20"/>
     <use x="539.697266" xlink:href="#DejaVuSans-4e"/>
     <use x="614.501953" xlink:href="#DejaVuSans-61"/>
     <use x="675.78125" xlink:href="#DejaVuSans-74"/>
     <use x="714.990234" xlink:href="#DejaVuSans-75"/>
     <use x="778.369141" xlink:href="#DejaVuSans-72"/>
     <use x="817.232422" xlink:href="#DejaVuSans-65"/>
    </g>
   </g>
   <g id="text_32">
    <!-- 5.32% -->
    <g transform="translate(637.081681 283.881135)scale(0.1 -0.1)">
     <use xlink:href="#DejaVuSans-35"/>
     <use x="63.623047" xlink:href="#DejaVuSans-2e"/>
     <use x="95.410156" xlink:href="#DejaVuSans-33"/>
     <use x="159.033203" xlink:href="#DejaVuSans-32"/>
     <use x="222.65625" xlink:href="#DejaVuSans-25"/>
    </g>
   </g>
   <g id="text_33">
    <!-- Coming of Age -->
    <g transform="translate(687.450259 269.572819)scale(0.1 -0.1)">
     <use xlink:href="#DejaVuSans-43"/>
     <use x="69.824219" xlink:href="#DejaVuSans-6f"/>
     <use x="131.005859" xlink:href="#DejaVuSans-6d"/>
     <use x="228.417969" xlink:href="#DejaVuSans-69"/>
     <use x="256.201172" xlink:href="#DejaVuSans-6e"/>
     <use x="319.580078" xlink:href="#DejaVuSans-67"/>
     <use x="383.056641" xlink:href="#DejaVuSans-20"/>
     <use x="414.84375" xlink:href="#DejaVuSans-6f"/>
     <use x="476.025391" xlink:href="#DejaVuSans-66"/>
     <use x="511.230469" xlink:href="#DejaVuSans-20"/>
     <use x="543.017578" xlink:href="#DejaVuSans-41"/>
     <use x="611.425781" xlink:href="#DejaVuSans-67"/>
     <use x="674.902344" xlink:href="#DejaVuSans-65"/>
    </g>
   </g>
   <g id="text_34">
    <!-- 5.24% -->
    <g transform="translate(654.291124 260.726739)scale(0.1 -0.1)">
     <use xlink:href="#DejaVuSans-35"/>
     <use x="63.623047" xlink:href="#DejaVuSans-2e"/>
     <use x="95.410156" xlink:href="#DejaVuSans-32"/>
     <use x="159.033203" xlink:href="#DejaVuSans-34"/>
     <use x="222.65625" xlink:href="#DejaVuSans-25"/>
    </g>
   </g>
   <g id="text_35">
    <!-- Fantasy -->
    <g transform="translate(697.914911 237.321841)scale(0.1 -0.1)">
     <use xlink:href="#DejaVuSans-46"/>
     <use x="48.394531" xlink:href="#DejaVuSans-61"/>
     <use x="109.673828" xlink:href="#DejaVuSans-6e"/>
     <use x="173.052734" xlink:href="#DejaVuSans-74"/>
     <use x="212.261719" xlink:href="#DejaVuSans-61"/>
     <use x="273.541016" xlink:href="#DejaVuSans-73"/>
     <use x="325.640625" xlink:href="#DejaVuSans-79"/>
    </g>
   </g>
   <g id="text_36">
    <!-- 4.91% -->
    <g transform="translate(662.853112 234.339575)scale(0.1 -0.1)">
     <use xlink:href="#DejaVuSans-34"/>
     <use x="63.623047" xlink:href="#DejaVuSans-2e"/>
     <use x="95.410156" xlink:href="#DejaVuSans-39"/>
     <use x="159.033203" xlink:href="#DejaVuSans-31"/>
     <use x="222.65625" xlink:href="#DejaVuSans-25"/>
    </g>
   </g>
   <g id="text_37">
    <!-- Disney+ -->
    <g transform="translate(566.948845 90.855652)scale(0.12 -0.12)">
     <defs>
      <path d="M 2944 4013 
L 2944 2272 
L 4684 2272 
L 4684 1741 
L 2944 1741 
L 2944 0 
L 2419 0 
L 2419 1741 
L 678 1741 
L 678 2272 
L 2419 2272 
L 2419 4013 
L 2944 4013 
z
" id="DejaVuSans-2b" transform="scale(0.015625)"/>
     </defs>
     <use xlink:href="#DejaVuSans-44"/>
     <use x="77.001953" xlink:href="#DejaVuSans-69"/>
     <use x="104.785156" xlink:href="#DejaVuSans-73"/>
     <use x="156.884766" xlink:href="#DejaVuSans-6e"/>
     <use x="220.263672" xlink:href="#DejaVuSans-65"/>
     <use x="281.787109" xlink:href="#DejaVuSans-79"/>
     <use x="340.966797" xlink:href="#DejaVuSans-2b"/>
    </g>
   </g>
  </g>
  <g id="axes_4">
   <g id="patch_19">
    <path d="M 980.608696 218.16 
C 980.608696 208.114391 979.048865 198.129424 975.985027 188.562442 
C 972.921189 178.995459 968.390334 169.961966 962.554614 161.785254 
L 883.565217 218.16 
L 980.608696 218.16 
z
" style="fill:#1f77b4;"/>
   </g>
   <g id="patch_20">
    <path d="M 962.554614 161.785254 
C 948.321156 141.842064 927.049861 128.010987 903.047204 123.092188 
C 879.044547 118.173389 854.047567 122.522836 833.117021 135.259963 
C 812.186476 147.997089 796.83708 168.200126 790.176391 191.778875 
C 783.515702 215.357623 786.025746 240.605719 797.198352 262.411567 
L 883.565217 218.16 
L 962.554614 161.785254 
z
" style="fill:#ff7f0e;"/>
   </g>
   <g id="patch_21">
    <path d="M 797.198352 262.411567 
C 803.437875 274.589396 812.183055 285.310985 822.858356 293.870724 
C 833.533657 302.430462 845.899638 308.636361 859.142468 312.079998 
L 883.565217 218.16 
L 797.198352 262.411567 
z
" style="fill:#2ca02c;"/>
   </g>
   <g id="patch_22">
    <path d="M 859.142468 312.079998 
C 867.227266 314.182351 875.549791 315.232001 883.903413 315.202889 
C 892.257035 315.173776 900.572042 314.066144 908.641991 311.907491 
L 883.565217 218.16 
L 859.142468 312.079998 
z
" style="fill:#d62728;"/>
   </g>
   <g id="patch_23">
    <path d="M 908.641991 311.907491 
C 916.260044 309.869717 923.601386 306.910939 930.503459 303.096671 
C 937.405533 299.282404 943.817016 294.641009 949.595942 289.275259 
L 883.565217 218.16 
L 908.641991 311.907491 
z
" style="fill:#9467bd;"/>
   </g>
   <g id="patch_24">
    <path d="M 949.595942 289.275259 
C 955.728729 283.580948 961.099242 277.117171 965.573662 270.044985 
C 970.048082 262.9728 973.588936 255.351437 976.107996 247.370799 
L 883.565217 218.16 
L 949.595942 289.275259 
z
" style="fill:#8c564b;"/>
   </g>
   <g id="patch_25">
    <path d="M 976.107996 247.370799 
C 977.597249 242.652696 978.723509 237.827604 979.476921 232.937743 
C 980.230334 228.047883 980.608696 223.107557 980.608696 218.159995 
L 883.565217 218.16 
L 976.107996 247.370799 
z
" style="fill:#e377c2;"/>
   </g>
   <g id="matplotlib.axis_5"/>
   <g id="matplotlib.axis_6"/>
   <g id="text_38">
    <!-- Comedy -->
    <g transform="translate(985.227008 188.362061)scale(0.1 -0.1)">
     <use xlink:href="#DejaVuSans-43"/>
     <use x="69.824219" xlink:href="#DejaVuSans-6f"/>
     <use x="131.005859" xlink:href="#DejaVuSans-6d"/>
     <use x="228.417969" xlink:href="#DejaVuSans-65"/>
     <use x="289.941406" xlink:href="#DejaVuSans-64"/>
     <use x="353.417969" xlink:href="#DejaVuSans-79"/>
    </g>
   </g>
   <g id="text_39">
    <!-- 9.87% -->
    <g transform="translate(950.859452 194.281572)scale(0.1 -0.1)">
     <defs>
      <path d="M 525 4666 
L 3525 4666 
L 3525 4397 
L 1831 0 
L 1172 0 
L 2766 4134 
L 525 4134 
L 525 4666 
z
" id="DejaVuSans-37" transform="scale(0.015625)"/>
     </defs>
     <use xlink:href="#DejaVuSans-39"/>
     <use x="63.623047" xlink:href="#DejaVuSans-2e"/>
     <use x="95.410156" xlink:href="#DejaVuSans-38"/>
     <use x="159.033203" xlink:href="#DejaVuSans-37"/>
     <use x="222.65625" xlink:href="#DejaVuSans-25"/>
    </g>
   </g>
   <g id="text_40">
    <!-- Other -->
    <g transform="translate(799.678452 129.729334)scale(0.1 -0.1)">
     <use xlink:href="#DejaVuSans-4f"/>
     <use x="78.710938" xlink:href="#DejaVuSans-74"/>
     <use x="117.919922" xlink:href="#DejaVuSans-68"/>
     <use x="181.298828" xlink:href="#DejaVuSans-65"/>
     <use x="242.822266" xlink:href="#DejaVuSans-72"/>
    </g>
   </g>
   <g id="text_41">
    <!-- 47.67% -->
    <g transform="translate(819.096997 146.309341)scale(0.1 -0.1)">
     <use xlink:href="#DejaVuSans-34"/>
     <use x="63.623047" xlink:href="#DejaVuSans-37"/>
     <use x="127.246094" xlink:href="#DejaVuSans-2e"/>
     <use x="159.033203" xlink:href="#DejaVuSans-36"/>
     <use x="222.65625" xlink:href="#DejaVuSans-37"/>
     <use x="286.279297" xlink:href="#DejaVuSans-25"/>
    </g>
   </g>
   <g id="text_42">
    <!-- Drama -->
    <g transform="translate(782.979858 304.201171)scale(0.1 -0.1)">
     <use xlink:href="#DejaVuSans-44"/>
     <use x="77.001953" xlink:href="#DejaVuSans-72"/>
     <use x="118.115234" xlink:href="#DejaVuSans-61"/>
     <use x="179.394531" xlink:href="#DejaVuSans-6d"/>
     <use x="276.806641" xlink:href="#DejaVuSans-61"/>
    </g>
   </g>
   <g id="text_43">
    <!-- 13.42% -->
    <g transform="translate(809.864199 289.059026)scale(0.1 -0.1)">
     <use xlink:href="#DejaVuSans-31"/>
     <use x="63.623047" xlink:href="#DejaVuSans-33"/>
     <use x="127.246094" xlink:href="#DejaVuSans-2e"/>
     <use x="159.033203" xlink:href="#DejaVuSans-34"/>
     <use x="222.65625" xlink:href="#DejaVuSans-32"/>
     <use x="286.279297" xlink:href="#DejaVuSans-25"/>
    </g>
   </g>
   <g id="text_44">
    <!-- Action -->
    <g transform="translate(883.937233 327.666553)scale(0.1 -0.1)">
     <use xlink:href="#DejaVuSans-41"/>
     <use x="66.658203" xlink:href="#DejaVuSans-63"/>
     <use x="121.638672" xlink:href="#DejaVuSans-74"/>
     <use x="160.847656" xlink:href="#DejaVuSans-69"/>
     <use x="188.630859" xlink:href="#DejaVuSans-6f"/>
     <use x="249.8125" xlink:href="#DejaVuSans-6e"/>
    </g>
   </g>
   <g id="text_45">
    <!-- 8.21% -->
    <g transform="translate(867.986 308.257975)scale(0.1 -0.1)">
     <use xlink:href="#DejaVuSans-38"/>
     <use x="63.623047" xlink:href="#DejaVuSans-2e"/>
     <use x="95.410156" xlink:href="#DejaVuSans-32"/>
     <use x="159.033203" xlink:href="#DejaVuSans-31"/>
     <use x="222.65625" xlink:href="#DejaVuSans-25"/>
    </g>
   </g>
   <g id="text_46">
    <!-- Documentaries -->
    <g transform="translate(935.197283 314.349713)scale(0.1 -0.1)">
     <use xlink:href="#DejaVuSans-44"/>
     <use x="77.001953" xlink:href="#DejaVuSans-6f"/>
     <use x="138.183594" xlink:href="#DejaVuSans-63"/>
     <use x="193.164062" xlink:href="#DejaVuSans-75"/>
     <use x="256.542969" xlink:href="#DejaVuSans-6d"/>
     <use x="353.955078" xlink:href="#DejaVuSans-65"/>
     <use x="415.478516" xlink:href="#DejaVuSans-6e"/>
     <use x="478.857422" xlink:href="#DejaVuSans-74"/>
     <use x="518.066406" xlink:href="#DejaVuSans-61"/>
     <use x="579.345703" xlink:href="#DejaVuSans-72"/>
     <use x="620.458984" xlink:href="#DejaVuSans-69"/>
     <use x="648.242188" xlink:href="#DejaVuSans-65"/>
     <use x="709.765625" xlink:href="#DejaVuSans-73"/>
    </g>
   </g>
   <g id="text_47">
    <!-- 7.75% -->
    <g transform="translate(909.926041 297.362379)scale(0.1 -0.1)">
     <use xlink:href="#DejaVuSans-37"/>
     <use x="63.623047" xlink:href="#DejaVuSans-2e"/>
     <use x="95.410156" xlink:href="#DejaVuSans-37"/>
     <use x="159.033203" xlink:href="#DejaVuSans-35"/>
     <use x="222.65625" xlink:href="#DejaVuSans-25"/>
    </g>
   </g>
   <g id="text_48">
    <!-- Adventure -->
    <g transform="translate(973.774506 277.992859)scale(0.1 -0.1)">
     <use xlink:href="#DejaVuSans-41"/>
     <use x="66.658203" xlink:href="#DejaVuSans-64"/>
     <use x="130.134766" xlink:href="#DejaVuSans-76"/>
     <use x="189.314453" xlink:href="#DejaVuSans-65"/>
     <use x="250.837891" xlink:href="#DejaVuSans-6e"/>
     <use x="314.216797" xlink:href="#DejaVuSans-74"/>
     <use x="353.425781" xlink:href="#DejaVuSans-75"/>
     <use x="416.804688" xlink:href="#DejaVuSans-72"/>
     <use x="455.667969" xlink:href="#DejaVuSans-65"/>
    </g>
   </g>
   <g id="text_49">
    <!-- 8.22% -->
    <g transform="translate(941.489224 267.615862)scale(0.1 -0.1)">
     <use xlink:href="#DejaVuSans-38"/>
     <use x="63.623047" xlink:href="#DejaVuSans-2e"/>
     <use x="95.410156" xlink:href="#DejaVuSans-32"/>
     <use x="159.033203" xlink:href="#DejaVuSans-32"/>
     <use x="222.65625" xlink:href="#DejaVuSans-25"/>
    </g>
   </g>
   <g id="text_50">
    <!-- Anime -->
    <g transform="translate(989.068092 237.174893)scale(0.1 -0.1)">
     <use xlink:href="#DejaVuSans-41"/>
     <use x="68.408203" xlink:href="#DejaVuSans-6e"/>
     <use x="131.787109" xlink:href="#DejaVuSans-69"/>
     <use x="159.570312" xlink:href="#DejaVuSans-6d"/>
     <use x="256.982422" xlink:href="#DejaVuSans-65"/>
    </g>
   </g>
   <g id="text_51">
    <!-- 4.87% -->
    <g transform="translate(954.002157 234.219344)scale(0.1 -0.1)">
     <use xlink:href="#DejaVuSans-34"/>
     <use x="63.623047" xlink:href="#DejaVuSans-2e"/>
     <use x="95.410156" xlink:href="#DejaVuSans-38"/>
     <use x="159.033203" xlink:href="#DejaVuSans-37"/>
     <use x="222.65625" xlink:href="#DejaVuSans-25"/>
    </g>
   </g>
   <g id="text_52">
    <!-- Hulu -->
    <g transform="translate(869.781155 90.855652)scale(0.12 -0.12)">
     <defs>
      <path d="M 628 4666 
L 1259 4666 
L 1259 2753 
L 3553 2753 
L 3553 4666 
L 4184 4666 
L 4184 0 
L 3553 0 
L 3553 2222 
L 1259 2222 
L 1259 0 
L 628 0 
L 628 4666 
z
" id="DejaVuSans-48" transform="scale(0.015625)"/>
     </defs>
     <use xlink:href="#DejaVuSans-48"/>
     <use x="75.195312" xlink:href="#DejaVuSans-75"/>
     <use x="138.574219" xlink:href="#DejaVuSans-6c"/>
     <use x="166.357422" xlink:href="#DejaVuSans-75"/>
    </g>
   </g>
  </g>
  <g id="axes_5">
   <g id="patch_26">
    <path d="M 1271.73913 218.16 
C 1271.73913 203.478791 1268.407564 188.987201 1261.996106 175.779964 
C 1255.584648 162.572727 1246.258917 150.991006 1234.723403 141.909716 
C 1223.18789 132.828426 1209.740573 126.482151 1195.397302 123.350304 
C 1181.054031 120.218458 1166.185312 120.381942 1151.91437 123.828405 
C 1137.643428 127.274868 1124.338902 133.915284 1113.005853 143.248016 
C 1101.672804 152.580749 1092.603981 164.36472 1086.484469 177.709737 
C 1080.364957 191.054753 1077.35283 205.616093 1077.675635 220.293753 
C 1077.998439 234.971412 1081.647836 249.386246 1088.348139 262.449318 
L 1174.695652 218.16 
L 1271.73913 218.16 
z
" style="fill:#1f77b4;"/>
   </g>
   <g id="patch_27">
    <path d="M 1088.348139 262.449318 
C 1091.594107 268.777735 1095.525976 274.73017 1100.07284 280.199283 
C 1104.619705 285.668396 1109.754069 290.621111 1115.383342 294.968115 
L 1174.695652 218.16 
L 1088.348139 262.449318 
z
" style="fill:#ff7f0e;"/>
   </g>
   <g id="patch_28">
    <path d="M 1115.383342 294.968115 
C 1125.518548 302.794664 1137.103369 308.538284 1149.468482 311.867132 
C 1161.833595 315.19598 1174.736189 316.044689 1187.430805 314.364223 
L 1174.695652 218.16 
L 1115.383342 294.968115 
z
" style="fill:#2ca02c;"/>
   </g>
   <g id="patch_29">
    <path d="M 1187.430805 314.364223 
C 1201.838552 312.45698 1215.635502 307.337273 1227.799821 299.384281 
C 1239.96414 291.43129 1250.18792 280.846321 1257.713964 268.413325 
L 1174.695652 218.16 
L 1187.430805 314.364223 
z
" style="fill:#d62728;"/>
   </g>
   <g id="patch_30">
    <path d="M 1257.713964 268.413325 
C 1262.280037 260.870187 1265.796815 252.739802 1268.167099 244.246881 
C 1270.537382 235.75396 1271.739131 226.977475 1271.73913 218.159995 
L 1174.695652 218.16 
L 1257.713964 268.413325 
z
" style="fill:#9467bd;"/>
   </g>
   <g id="matplotlib.axis_7"/>
   <g id="matplotlib.axis_8"/>
   <g id="text_53">
    <!-- Other -->
    <g transform="translate(1121.242492 117.15462)scale(0.1 -0.1)">
     <use xlink:href="#DejaVuSans-4f"/>
     <use x="78.710938" xlink:href="#DejaVuSans-74"/>
     <use x="117.919922" xlink:href="#DejaVuSans-68"/>
     <use x="181.298828" xlink:href="#DejaVuSans-65"/>
     <use x="242.822266" xlink:href="#DejaVuSans-72"/>
    </g>
   </g>
   <g id="text_54">
    <!-- 57.54% -->
    <g transform="translate(1135.127654 136.020939)scale(0.1 -0.1)">
     <use xlink:href="#DejaVuSans-35"/>
     <use x="63.623047" xlink:href="#DejaVuSans-37"/>
     <use x="127.246094" xlink:href="#DejaVuSans-2e"/>
     <use x="159.033203" xlink:href="#DejaVuSans-35"/>
     <use x="222.65625" xlink:href="#DejaVuSans-34"/>
     <use x="286.279297" xlink:href="#DejaVuSans-25"/>
    </g>
   </g>
   <g id="text_55">
    <!-- International TV Shows -->
    <g transform="translate(977.290247 289.162586)scale(0.1 -0.1)">
     <defs>
      <path d="M 1831 0 
L 50 4666 
L 709 4666 
L 2188 738 
L 3669 4666 
L 4325 4666 
L 2547 0 
L 1831 0 
z
" id="DejaVuSans-56" transform="scale(0.015625)"/>
      <path d="M 269 3500 
L 844 3500 
L 1563 769 
L 2278 3500 
L 2956 3500 
L 3675 769 
L 4391 3500 
L 4966 3500 
L 4050 0 
L 3372 0 
L 2619 2869 
L 1863 0 
L 1184 0 
L 269 3500 
z
" id="DejaVuSans-77" transform="scale(0.015625)"/>
     </defs>
     <use xlink:href="#DejaVuSans-49"/>
     <use x="29.492188" xlink:href="#DejaVuSans-6e"/>
     <use x="92.871094" xlink:href="#DejaVuSans-74"/>
     <use x="132.080078" xlink:href="#DejaVuSans-65"/>
     <use x="193.603516" xlink:href="#DejaVuSans-72"/>
     <use x="232.966797" xlink:href="#DejaVuSans-6e"/>
     <use x="296.345703" xlink:href="#DejaVuSans-61"/>
     <use x="357.625" xlink:href="#DejaVuSans-74"/>
     <use x="396.833984" xlink:href="#DejaVuSans-69"/>
     <use x="424.617188" xlink:href="#DejaVuSans-6f"/>
     <use x="485.798828" xlink:href="#DejaVuSans-6e"/>
     <use x="549.177734" xlink:href="#DejaVuSans-61"/>
     <use x="610.457031" xlink:href="#DejaVuSans-6c"/>
     <use x="638.240234" xlink:href="#DejaVuSans-20"/>
     <use x="670.027344" xlink:href="#DejaVuSans-54"/>
     <use x="731.111328" xlink:href="#DejaVuSans-56"/>
     <use x="799.519531" xlink:href="#DejaVuSans-20"/>
     <use x="831.306641" xlink:href="#DejaVuSans-53"/>
     <use x="894.783203" xlink:href="#DejaVuSans-68"/>
     <use x="958.162109" xlink:href="#DejaVuSans-6f"/>
     <use x="1019.34375" xlink:href="#DejaVuSans-77"/>
     <use x="1101.130859" xlink:href="#DejaVuSans-73"/>
    </g>
   </g>
   <g id="text_56">
    <!-- 6.99% -->
    <g transform="translate(1091.651528 276.75473)scale(0.1 -0.1)">
     <use xlink:href="#DejaVuSans-36"/>
     <use x="63.623047" xlink:href="#DejaVuSans-2e"/>
     <use x="95.410156" xlink:href="#DejaVuSans-39"/>
     <use x="159.033203" xlink:href="#DejaVuSans-39"/>
     <use x="222.65625" xlink:href="#DejaVuSans-25"/>
    </g>
   </g>
   <g id="text_57">
    <!-- Dramas -->
    <g transform="translate(1107.928577 323.99722)scale(0.1 -0.1)">
     <use xlink:href="#DejaVuSans-44"/>
     <use x="77.001953" xlink:href="#DejaVuSans-72"/>
     <use x="118.115234" xlink:href="#DejaVuSans-61"/>
     <use x="179.394531" xlink:href="#DejaVuSans-6d"/>
     <use x="276.806641" xlink:href="#DejaVuSans-61"/>
     <use x="338.085938" xlink:href="#DejaVuSans-73"/>
    </g>
   </g>
   <g id="text_58">
    <!-- 12.56% -->
    <g transform="translate(1132.926355 305.255794)scale(0.1 -0.1)">
     <use xlink:href="#DejaVuSans-31"/>
     <use x="63.623047" xlink:href="#DejaVuSans-32"/>
     <use x="127.246094" xlink:href="#DejaVuSans-2e"/>
     <use x="159.033203" xlink:href="#DejaVuSans-35"/>
     <use x="222.65625" xlink:href="#DejaVuSans-36"/>
     <use x="286.279297" xlink:href="#DejaVuSans-25"/>
    </g>
   </g>
   <g id="text_59">
    <!-- International Movies -->
    <g transform="translate(1233.110238 310.266085)scale(0.1 -0.1)">
     <defs>
      <path d="M 628 4666 
L 1569 4666 
L 2759 1491 
L 3956 4666 
L 4897 4666 
L 4897 0 
L 4281 0 
L 4281 4097 
L 3078 897 
L 2444 897 
L 1241 4097 
L 1241 0 
L 628 0 
L 628 4666 
z
" id="DejaVuSans-4d" transform="scale(0.015625)"/>
     </defs>
     <use xlink:href="#DejaVuSans-49"/>
     <use x="29.492188" xlink:href="#DejaVuSans-6e"/>
     <use x="92.871094" xlink:href="#DejaVuSans-74"/>
     <use x="132.080078" xlink:href="#DejaVuSans-65"/>
     <use x="193.603516" xlink:href="#DejaVuSans-72"/>
     <use x="232.966797" xlink:href="#DejaVuSans-6e"/>
     <use x="296.345703" xlink:href="#DejaVuSans-61"/>
     <use x="357.625" xlink:href="#DejaVuSans-74"/>
     <use x="396.833984" xlink:href="#DejaVuSans-69"/>
     <use x="424.617188" xlink:href="#DejaVuSans-6f"/>
     <use x="485.798828" xlink:href="#DejaVuSans-6e"/>
     <use x="549.177734" xlink:href="#DejaVuSans-61"/>
     <use x="610.457031" xlink:href="#DejaVuSans-6c"/>
     <use x="638.240234" xlink:href="#DejaVuSans-20"/>
     <use x="670.027344" xlink:href="#DejaVuSans-4d"/>
     <use x="756.306641" xlink:href="#DejaVuSans-6f"/>
     <use x="817.488281" xlink:href="#DejaVuSans-76"/>
     <use x="876.667969" xlink:href="#DejaVuSans-69"/>
     <use x="904.451172" xlink:href="#DejaVuSans-65"/>
     <use x="965.974609" xlink:href="#DejaVuSans-73"/>
    </g>
   </g>
   <g id="text_60">
    <!-- 14.24% -->
    <g transform="translate(1203.424561 294.021228)scale(0.1 -0.1)">
     <use xlink:href="#DejaVuSans-31"/>
     <use x="63.623047" xlink:href="#DejaVuSans-34"/>
     <use x="127.246094" xlink:href="#DejaVuSans-2e"/>
     <use x="159.033203" xlink:href="#DejaVuSans-32"/>
     <use x="222.65625" xlink:href="#DejaVuSans-34"/>
     <use x="286.279297" xlink:href="#DejaVuSans-25"/>
    </g>
   </g>
   <g id="text_61">
    <!-- Comedies -->
    <g transform="translate(1277.514243 249.614944)scale(0.1 -0.1)">
     <use xlink:href="#DejaVuSans-43"/>
     <use x="69.824219" xlink:href="#DejaVuSans-6f"/>
     <use x="131.005859" xlink:href="#DejaVuSans-6d"/>
     <use x="228.417969" xlink:href="#DejaVuSans-65"/>
     <use x="289.941406" xlink:href="#DejaVuSans-64"/>
     <use x="353.417969" xlink:href="#DejaVuSans-69"/>
     <use x="381.201172" xlink:href="#DejaVuSans-65"/>
     <use x="442.724609" xlink:href="#DejaVuSans-73"/>
    </g>
   </g>
   <g id="text_62">
    <!-- 8.66% -->
    <g transform="translate(1242.93636 244.397568)scale(0.1 -0.1)">
     <use xlink:href="#DejaVuSans-38"/>
     <use x="63.623047" xlink:href="#DejaVuSans-2e"/>
     <use x="95.410156" xlink:href="#DejaVuSans-36"/>
     <use x="159.033203" xlink:href="#DejaVuSans-36"/>
     <use x="222.65625" xlink:href="#DejaVuSans-25"/>
    </g>
   </g>
   <g id="text_63">
    <!-- Netflix -->
    <g transform="translate(1155.165652 90.855652)scale(0.12 -0.12)">
     <defs>
      <path d="M 3513 3500 
L 2247 1797 
L 3578 0 
L 2900 0 
L 1881 1375 
L 863 0 
L 184 0 
L 1544 1831 
L 300 3500 
L 978 3500 
L 1906 2253 
L 2834 3500 
L 3513 3500 
z
" id="DejaVuSans-78" transform="scale(0.015625)"/>
     </defs>
     <use xlink:href="#DejaVuSans-4e"/>
     <use x="74.804688" xlink:href="#DejaVuSans-65"/>
     <use x="136.328125" xlink:href="#DejaVuSans-74"/>
     <use x="175.537109" xlink:href="#DejaVuSans-66"/>
     <use x="210.742188" xlink:href="#DejaVuSans-6c"/>
     <use x="238.525391" xlink:href="#DejaVuSans-69"/>
     <use x="266.308594" xlink:href="#DejaVuSans-78"/>
    </g>
   </g>
  </g>
 </g>
</svg>
