<?xml version="1.0" encoding="utf-8" standalone="no"?>
<!DOCTYPE svg PUBLIC "-//W3C//DTD SVG 1.1//EN"
  "http://www.w3.org/Graphics/SVG/1.1/DTD/svg11.dtd">
<svg height="345.6pt" version="1.1" viewBox="0 0 460.8 345.6" width="460.8pt" xmlns="http://www.w3.org/2000/svg" xmlns:xlink="http://www.w3.org/1999/xlink">
 <metadata>
  <rdf:RDF xmlns:cc="http://creativecommons.org/ns#" xmlns:dc="http://purl.org/dc/elements/1.1/" xmlns:rdf="http://www.w3.org/1999/02/22-rdf-syntax-ns#">
   <cc:Work>
    <dc:type rdf:resource="http://purl.org/dc/dcmitype/StillImage"/>
    <dc:date>2021-12-18T21:24:31.198074</dc:date>
    <dc:format>image/svg+xml</dc:format>
    <dc:creator>
     <cc:Agent>
      <dc:title>Matplotlib v3.4.3, https://matplotlib.org/</dc:title>
     </cc:Agent>
    </dc:creator>
   </cc:Work>
  </rdf:RDF>
 </metadata>
 <defs>
  <style type="text/css">*{stroke-linecap:butt;stroke-linejoin:round;}</style>
 </defs>
 <g id="figure_1">
  <g id="patch_1">
   <path d="M 0 345.6 
L 460.8 345.6 
L 460.8 0 
L 0 0 
z
" style="fill:#ffffff;"/>
  </g>
  <g id="axes_1">
   <g id="patch_2">
    <path d="M 57.6 307.584 
L 414.72 307.584 
L 414.72 41.472 
L 57.6 41.472 
z
" style="fill:#eaeaf2;"/>
   </g>
   <g id="matplotlib.axis_1">
    <g id="xtick_1">
     <g id="line2d_1">
      <path clip-path="url(#p7c0ad40478)" d="M 81.750063 307.584 
L 81.750063 41.472 
" style="fill:none;stroke:#ffffff;stroke-linecap:round;"/>
     </g>
     <g id="text_1">
      <!-- 0 -->
      <g style="fill:#262626;" transform="translate(78.691547 324.957594)scale(0.11 -0.11)">
       <defs>
        <path d="M 266 2259 
Q 266 3072 433 3567 
Q 600 4063 929 4331 
Q 1259 4600 1759 4600 
Q 2128 4600 2406 4451 
Q 2684 4303 2865 4023 
Q 3047 3744 3150 3342 
Q 3253 2941 3253 2259 
Q 3253 1453 3087 958 
Q 2922 463 2592 192 
Q 2263 -78 1759 -78 
Q 1097 -78 719 397 
Q 266 969 266 2259 
z
M 844 2259 
Q 844 1131 1108 757 
Q 1372 384 1759 384 
Q 2147 384 2411 759 
Q 2675 1134 2675 2259 
Q 2675 3391 2411 3762 
Q 2147 4134 1753 4134 
Q 1366 4134 1134 3806 
Q 844 3388 844 2259 
z
" id="ArialMT-30" transform="scale(0.015625)"/>
       </defs>
       <use xlink:href="#ArialMT-30"/>
      </g>
     </g>
    </g>
    <g id="xtick_2">
     <g id="line2d_2">
      <path clip-path="url(#p7c0ad40478)" d="M 133.134401 307.584 
L 133.134401 41.472 
" style="fill:none;stroke:#ffffff;stroke-linecap:round;"/>
     </g>
     <g id="text_2">
      <!-- 100 -->
      <g style="fill:#262626;" transform="translate(123.958854 324.957594)scale(0.11 -0.11)">
       <defs>
        <path d="M 2384 0 
L 1822 0 
L 1822 3584 
Q 1619 3391 1289 3197 
Q 959 3003 697 2906 
L 697 3450 
Q 1169 3672 1522 3987 
Q 1875 4303 2022 4600 
L 2384 4600 
L 2384 0 
z
" id="ArialMT-31" transform="scale(0.015625)"/>
       </defs>
       <use xlink:href="#ArialMT-31"/>
       <use x="55.615234" xlink:href="#ArialMT-30"/>
       <use x="111.230469" xlink:href="#ArialMT-30"/>
      </g>
     </g>
    </g>
    <g id="xtick_3">
     <g id="line2d_3">
      <path clip-path="url(#p7c0ad40478)" d="M 184.51874 307.584 
L 184.51874 41.472 
" style="fill:none;stroke:#ffffff;stroke-linecap:round;"/>
     </g>
     <g id="text_3">
      <!-- 200 -->
      <g style="fill:#262626;" transform="translate(175.343193 324.957594)scale(0.11 -0.11)">
       <defs>
        <path d="M 3222 541 
L 3222 0 
L 194 0 
Q 188 203 259 391 
Q 375 700 629 1000 
Q 884 1300 1366 1694 
Q 2113 2306 2375 2664 
Q 2638 3022 2638 3341 
Q 2638 3675 2398 3904 
Q 2159 4134 1775 4134 
Q 1369 4134 1125 3890 
Q 881 3647 878 3216 
L 300 3275 
Q 359 3922 746 4261 
Q 1134 4600 1788 4600 
Q 2447 4600 2831 4234 
Q 3216 3869 3216 3328 
Q 3216 3053 3103 2787 
Q 2991 2522 2730 2228 
Q 2469 1934 1863 1422 
Q 1356 997 1212 845 
Q 1069 694 975 541 
L 3222 541 
z
" id="ArialMT-32" transform="scale(0.015625)"/>
       </defs>
       <use xlink:href="#ArialMT-32"/>
       <use x="55.615234" xlink:href="#ArialMT-30"/>
       <use x="111.230469" xlink:href="#ArialMT-30"/>
      </g>
     </g>
    </g>
    <g id="xtick_4">
     <g id="line2d_4">
      <path clip-path="url(#p7c0ad40478)" d="M 235.903078 307.584 
L 235.903078 41.472 
" style="fill:none;stroke:#ffffff;stroke-linecap:round;"/>
     </g>
     <g id="text_4">
      <!-- 300 -->
      <g style="fill:#262626;" transform="translate(226.727531 324.957594)scale(0.11 -0.11)">
       <defs>
        <path d="M 269 1209 
L 831 1284 
Q 928 806 1161 595 
Q 1394 384 1728 384 
Q 2125 384 2398 659 
Q 2672 934 2672 1341 
Q 2672 1728 2419 1979 
Q 2166 2231 1775 2231 
Q 1616 2231 1378 2169 
L 1441 2663 
Q 1497 2656 1531 2656 
Q 1891 2656 2178 2843 
Q 2466 3031 2466 3422 
Q 2466 3731 2256 3934 
Q 2047 4138 1716 4138 
Q 1388 4138 1169 3931 
Q 950 3725 888 3313 
L 325 3413 
Q 428 3978 793 4289 
Q 1159 4600 1703 4600 
Q 2078 4600 2393 4439 
Q 2709 4278 2876 4000 
Q 3044 3722 3044 3409 
Q 3044 3113 2884 2869 
Q 2725 2625 2413 2481 
Q 2819 2388 3044 2092 
Q 3269 1797 3269 1353 
Q 3269 753 2831 336 
Q 2394 -81 1725 -81 
Q 1122 -81 723 278 
Q 325 638 269 1209 
z
" id="ArialMT-33" transform="scale(0.015625)"/>
       </defs>
       <use xlink:href="#ArialMT-33"/>
       <use x="55.615234" xlink:href="#ArialMT-30"/>
       <use x="111.230469" xlink:href="#ArialMT-30"/>
      </g>
     </g>
    </g>
    <g id="xtick_5">
     <g id="line2d_5">
      <path clip-path="url(#p7c0ad40478)" d="M 287.287417 307.584 
L 287.287417 41.472 
" style="fill:none;stroke:#ffffff;stroke-linecap:round;"/>
     </g>
     <g id="text_5">
      <!-- 400 -->
      <g style="fill:#262626;" transform="translate(278.11187 324.957594)scale(0.11 -0.11)">
       <defs>
        <path d="M 2069 0 
L 2069 1097 
L 81 1097 
L 81 1613 
L 2172 4581 
L 2631 4581 
L 2631 1613 
L 3250 1613 
L 3250 1097 
L 2631 1097 
L 2631 0 
L 2069 0 
z
M 2069 1613 
L 2069 3678 
L 634 1613 
L 2069 1613 
z
" id="ArialMT-34" transform="scale(0.015625)"/>
       </defs>
       <use xlink:href="#ArialMT-34"/>
       <use x="55.615234" xlink:href="#ArialMT-30"/>
       <use x="111.230469" xlink:href="#ArialMT-30"/>
      </g>
     </g>
    </g>
    <g id="xtick_6">
     <g id="line2d_6">
      <path clip-path="url(#p7c0ad40478)" d="M 338.671755 307.584 
L 338.671755 41.472 
" style="fill:none;stroke:#ffffff;stroke-linecap:round;"/>
     </g>
     <g id="text_6">
      <!-- 500 -->
      <g style="fill:#262626;" transform="translate(329.496208 324.957594)scale(0.11 -0.11)">
       <defs>
        <path d="M 266 1200 
L 856 1250 
Q 922 819 1161 601 
Q 1400 384 1738 384 
Q 2144 384 2425 690 
Q 2706 997 2706 1503 
Q 2706 1984 2436 2262 
Q 2166 2541 1728 2541 
Q 1456 2541 1237 2417 
Q 1019 2294 894 2097 
L 366 2166 
L 809 4519 
L 3088 4519 
L 3088 3981 
L 1259 3981 
L 1013 2750 
Q 1425 3038 1878 3038 
Q 2478 3038 2890 2622 
Q 3303 2206 3303 1553 
Q 3303 931 2941 478 
Q 2500 -78 1738 -78 
Q 1113 -78 717 272 
Q 322 622 266 1200 
z
" id="ArialMT-35" transform="scale(0.015625)"/>
       </defs>
       <use xlink:href="#ArialMT-35"/>
       <use x="55.615234" xlink:href="#ArialMT-30"/>
       <use x="111.230469" xlink:href="#ArialMT-30"/>
      </g>
     </g>
    </g>
    <g id="xtick_7">
     <g id="line2d_7">
      <path clip-path="url(#p7c0ad40478)" d="M 390.056094 307.584 
L 390.056094 41.472 
" style="fill:none;stroke:#ffffff;stroke-linecap:round;"/>
     </g>
     <g id="text_7">
      <!-- 600 -->
      <g style="fill:#262626;" transform="translate(380.880547 324.957594)scale(0.11 -0.11)">
       <defs>
        <path d="M 3184 3459 
L 2625 3416 
Q 2550 3747 2413 3897 
Q 2184 4138 1850 4138 
Q 1581 4138 1378 3988 
Q 1113 3794 959 3422 
Q 806 3050 800 2363 
Q 1003 2672 1297 2822 
Q 1591 2972 1913 2972 
Q 2475 2972 2870 2558 
Q 3266 2144 3266 1488 
Q 3266 1056 3080 686 
Q 2894 316 2569 119 
Q 2244 -78 1831 -78 
Q 1128 -78 684 439 
Q 241 956 241 2144 
Q 241 3472 731 4075 
Q 1159 4600 1884 4600 
Q 2425 4600 2770 4297 
Q 3116 3994 3184 3459 
z
M 888 1484 
Q 888 1194 1011 928 
Q 1134 663 1356 523 
Q 1578 384 1822 384 
Q 2178 384 2434 671 
Q 2691 959 2691 1453 
Q 2691 1928 2437 2201 
Q 2184 2475 1800 2475 
Q 1419 2475 1153 2201 
Q 888 1928 888 1484 
z
" id="ArialMT-36" transform="scale(0.015625)"/>
       </defs>
       <use xlink:href="#ArialMT-36"/>
       <use x="55.615234" xlink:href="#ArialMT-30"/>
       <use x="111.230469" xlink:href="#ArialMT-30"/>
      </g>
     </g>
    </g>
    <g id="text_8">
     <!-- Duration of movies -->
     <g style="fill:#262626;" transform="translate(186.141562 339.733219)scale(0.12 -0.12)">
      <defs>
       <path d="M 494 0 
L 494 4581 
L 2072 4581 
Q 2606 4581 2888 4516 
Q 3281 4425 3559 4188 
Q 3922 3881 4101 3404 
Q 4281 2928 4281 2316 
Q 4281 1794 4159 1391 
Q 4038 988 3847 723 
Q 3656 459 3429 307 
Q 3203 156 2883 78 
Q 2563 0 2147 0 
L 494 0 
z
M 1100 541 
L 2078 541 
Q 2531 541 2789 625 
Q 3047 709 3200 863 
Q 3416 1078 3536 1442 
Q 3656 1806 3656 2325 
Q 3656 3044 3420 3430 
Q 3184 3816 2847 3947 
Q 2603 4041 2063 4041 
L 1100 4041 
L 1100 541 
z
" id="ArialMT-44" transform="scale(0.015625)"/>
       <path d="M 2597 0 
L 2597 488 
Q 2209 -75 1544 -75 
Q 1250 -75 995 37 
Q 741 150 617 320 
Q 494 491 444 738 
Q 409 903 409 1263 
L 409 3319 
L 972 3319 
L 972 1478 
Q 972 1038 1006 884 
Q 1059 663 1231 536 
Q 1403 409 1656 409 
Q 1909 409 2131 539 
Q 2353 669 2445 892 
Q 2538 1116 2538 1541 
L 2538 3319 
L 3100 3319 
L 3100 0 
L 2597 0 
z
" id="ArialMT-75" transform="scale(0.015625)"/>
       <path d="M 416 0 
L 416 3319 
L 922 3319 
L 922 2816 
Q 1116 3169 1280 3281 
Q 1444 3394 1641 3394 
Q 1925 3394 2219 3213 
L 2025 2691 
Q 1819 2813 1613 2813 
Q 1428 2813 1281 2702 
Q 1134 2591 1072 2394 
Q 978 2094 978 1738 
L 978 0 
L 416 0 
z
" id="ArialMT-72" transform="scale(0.015625)"/>
       <path d="M 2588 409 
Q 2275 144 1986 34 
Q 1697 -75 1366 -75 
Q 819 -75 525 192 
Q 231 459 231 875 
Q 231 1119 342 1320 
Q 453 1522 633 1644 
Q 813 1766 1038 1828 
Q 1203 1872 1538 1913 
Q 2219 1994 2541 2106 
Q 2544 2222 2544 2253 
Q 2544 2597 2384 2738 
Q 2169 2928 1744 2928 
Q 1347 2928 1158 2789 
Q 969 2650 878 2297 
L 328 2372 
Q 403 2725 575 2942 
Q 747 3159 1072 3276 
Q 1397 3394 1825 3394 
Q 2250 3394 2515 3294 
Q 2781 3194 2906 3042 
Q 3031 2891 3081 2659 
Q 3109 2516 3109 2141 
L 3109 1391 
Q 3109 606 3145 398 
Q 3181 191 3288 0 
L 2700 0 
Q 2613 175 2588 409 
z
M 2541 1666 
Q 2234 1541 1622 1453 
Q 1275 1403 1131 1340 
Q 988 1278 909 1158 
Q 831 1038 831 891 
Q 831 666 1001 516 
Q 1172 366 1500 366 
Q 1825 366 2078 508 
Q 2331 650 2450 897 
Q 2541 1088 2541 1459 
L 2541 1666 
z
" id="ArialMT-61" transform="scale(0.015625)"/>
       <path d="M 1650 503 
L 1731 6 
Q 1494 -44 1306 -44 
Q 1000 -44 831 53 
Q 663 150 594 308 
Q 525 466 525 972 
L 525 2881 
L 113 2881 
L 113 3319 
L 525 3319 
L 525 4141 
L 1084 4478 
L 1084 3319 
L 1650 3319 
L 1650 2881 
L 1084 2881 
L 1084 941 
Q 1084 700 1114 631 
Q 1144 563 1211 522 
Q 1278 481 1403 481 
Q 1497 481 1650 503 
z
" id="ArialMT-74" transform="scale(0.015625)"/>
       <path d="M 425 3934 
L 425 4581 
L 988 4581 
L 988 3934 
L 425 3934 
z
M 425 0 
L 425 3319 
L 988 3319 
L 988 0 
L 425 0 
z
" id="ArialMT-69" transform="scale(0.015625)"/>
       <path d="M 213 1659 
Q 213 2581 725 3025 
Q 1153 3394 1769 3394 
Q 2453 3394 2887 2945 
Q 3322 2497 3322 1706 
Q 3322 1066 3130 698 
Q 2938 331 2570 128 
Q 2203 -75 1769 -75 
Q 1072 -75 642 372 
Q 213 819 213 1659 
z
M 791 1659 
Q 791 1022 1069 705 
Q 1347 388 1769 388 
Q 2188 388 2466 706 
Q 2744 1025 2744 1678 
Q 2744 2294 2464 2611 
Q 2184 2928 1769 2928 
Q 1347 2928 1069 2612 
Q 791 2297 791 1659 
z
" id="ArialMT-6f" transform="scale(0.015625)"/>
       <path d="M 422 0 
L 422 3319 
L 928 3319 
L 928 2847 
Q 1294 3394 1984 3394 
Q 2284 3394 2536 3286 
Q 2788 3178 2913 3003 
Q 3038 2828 3088 2588 
Q 3119 2431 3119 2041 
L 3119 0 
L 2556 0 
L 2556 2019 
Q 2556 2363 2490 2533 
Q 2425 2703 2258 2804 
Q 2091 2906 1866 2906 
Q 1506 2906 1245 2678 
Q 984 2450 984 1813 
L 984 0 
L 422 0 
z
" id="ArialMT-6e" transform="scale(0.015625)"/>
       <path id="ArialMT-20" transform="scale(0.015625)"/>
       <path d="M 556 0 
L 556 2881 
L 59 2881 
L 59 3319 
L 556 3319 
L 556 3672 
Q 556 4006 616 4169 
Q 697 4388 901 4523 
Q 1106 4659 1475 4659 
Q 1713 4659 2000 4603 
L 1916 4113 
Q 1741 4144 1584 4144 
Q 1328 4144 1222 4034 
Q 1116 3925 1116 3625 
L 1116 3319 
L 1763 3319 
L 1763 2881 
L 1116 2881 
L 1116 0 
L 556 0 
z
" id="ArialMT-66" transform="scale(0.015625)"/>
       <path d="M 422 0 
L 422 3319 
L 925 3319 
L 925 2853 
Q 1081 3097 1340 3245 
Q 1600 3394 1931 3394 
Q 2300 3394 2536 3241 
Q 2772 3088 2869 2813 
Q 3263 3394 3894 3394 
Q 4388 3394 4653 3120 
Q 4919 2847 4919 2278 
L 4919 0 
L 4359 0 
L 4359 2091 
Q 4359 2428 4304 2576 
Q 4250 2725 4106 2815 
Q 3963 2906 3769 2906 
Q 3419 2906 3187 2673 
Q 2956 2441 2956 1928 
L 2956 0 
L 2394 0 
L 2394 2156 
Q 2394 2531 2256 2718 
Q 2119 2906 1806 2906 
Q 1569 2906 1367 2781 
Q 1166 2656 1075 2415 
Q 984 2175 984 1722 
L 984 0 
L 422 0 
z
" id="ArialMT-6d" transform="scale(0.015625)"/>
       <path d="M 1344 0 
L 81 3319 
L 675 3319 
L 1388 1331 
Q 1503 1009 1600 663 
Q 1675 925 1809 1294 
L 2547 3319 
L 3125 3319 
L 1869 0 
L 1344 0 
z
" id="ArialMT-76" transform="scale(0.015625)"/>
       <path d="M 2694 1069 
L 3275 997 
Q 3138 488 2766 206 
Q 2394 -75 1816 -75 
Q 1088 -75 661 373 
Q 234 822 234 1631 
Q 234 2469 665 2931 
Q 1097 3394 1784 3394 
Q 2450 3394 2872 2941 
Q 3294 2488 3294 1666 
Q 3294 1616 3291 1516 
L 816 1516 
Q 847 969 1125 678 
Q 1403 388 1819 388 
Q 2128 388 2347 550 
Q 2566 713 2694 1069 
z
M 847 1978 
L 2700 1978 
Q 2663 2397 2488 2606 
Q 2219 2931 1791 2931 
Q 1403 2931 1139 2672 
Q 875 2413 847 1978 
z
" id="ArialMT-65" transform="scale(0.015625)"/>
       <path d="M 197 991 
L 753 1078 
Q 800 744 1014 566 
Q 1228 388 1613 388 
Q 2000 388 2187 545 
Q 2375 703 2375 916 
Q 2375 1106 2209 1216 
Q 2094 1291 1634 1406 
Q 1016 1563 777 1677 
Q 538 1791 414 1992 
Q 291 2194 291 2438 
Q 291 2659 392 2848 
Q 494 3038 669 3163 
Q 800 3259 1026 3326 
Q 1253 3394 1513 3394 
Q 1903 3394 2198 3281 
Q 2494 3169 2634 2976 
Q 2775 2784 2828 2463 
L 2278 2388 
Q 2241 2644 2061 2787 
Q 1881 2931 1553 2931 
Q 1166 2931 1000 2803 
Q 834 2675 834 2503 
Q 834 2394 903 2306 
Q 972 2216 1119 2156 
Q 1203 2125 1616 2013 
Q 2213 1853 2448 1751 
Q 2684 1650 2818 1456 
Q 2953 1263 2953 975 
Q 2953 694 2789 445 
Q 2625 197 2315 61 
Q 2006 -75 1616 -75 
Q 969 -75 630 194 
Q 291 463 197 991 
z
" id="ArialMT-73" transform="scale(0.015625)"/>
      </defs>
      <use xlink:href="#ArialMT-44"/>
      <use x="72.216797" xlink:href="#ArialMT-75"/>
      <use x="127.832031" xlink:href="#ArialMT-72"/>
      <use x="161.132812" xlink:href="#ArialMT-61"/>
      <use x="216.748047" xlink:href="#ArialMT-74"/>
      <use x="244.53125" xlink:href="#ArialMT-69"/>
      <use x="266.748047" xlink:href="#ArialMT-6f"/>
      <use x="322.363281" xlink:href="#ArialMT-6e"/>
      <use x="377.978516" xlink:href="#ArialMT-20"/>
      <use x="405.761719" xlink:href="#ArialMT-6f"/>
      <use x="461.376953" xlink:href="#ArialMT-66"/>
      <use x="489.160156" xlink:href="#ArialMT-20"/>
      <use x="516.943359" xlink:href="#ArialMT-6d"/>
      <use x="600.244141" xlink:href="#ArialMT-6f"/>
      <use x="655.859375" xlink:href="#ArialMT-76"/>
      <use x="705.859375" xlink:href="#ArialMT-69"/>
      <use x="728.076172" xlink:href="#ArialMT-65"/>
      <use x="783.691406" xlink:href="#ArialMT-73"/>
     </g>
    </g>
   </g>
   <g id="matplotlib.axis_2">
    <g id="ytick_1">
     <g id="line2d_8">
      <path clip-path="url(#p7c0ad40478)" d="M 57.6 307.584 
L 414.72 307.584 
" style="fill:none;stroke:#ffffff;stroke-linecap:round;"/>
     </g>
     <g id="text_9">
      <!-- 0.0000 -->
      <g style="fill:#262626;" transform="translate(14.458906 311.520797)scale(0.11 -0.11)">
       <defs>
        <path d="M 581 0 
L 581 641 
L 1222 641 
L 1222 0 
L 581 0 
z
" id="ArialMT-2e" transform="scale(0.015625)"/>
       </defs>
       <use xlink:href="#ArialMT-30"/>
       <use x="55.615234" xlink:href="#ArialMT-2e"/>
       <use x="83.398438" xlink:href="#ArialMT-30"/>
       <use x="139.013672" xlink:href="#ArialMT-30"/>
       <use x="194.628906" xlink:href="#ArialMT-30"/>
       <use x="250.244141" xlink:href="#ArialMT-30"/>
      </g>
     </g>
    </g>
    <g id="ytick_2">
     <g id="line2d_9">
      <path clip-path="url(#p7c0ad40478)" d="M 57.6 277.21814 
L 414.72 277.21814 
" style="fill:none;stroke:#ffffff;stroke-linecap:round;"/>
     </g>
     <g id="text_10">
      <!-- 0.0025 -->
      <g style="fill:#262626;" transform="translate(14.458906 281.154937)scale(0.11 -0.11)">
       <use xlink:href="#ArialMT-30"/>
       <use x="55.615234" xlink:href="#ArialMT-2e"/>
       <use x="83.398438" xlink:href="#ArialMT-30"/>
       <use x="139.013672" xlink:href="#ArialMT-30"/>
       <use x="194.628906" xlink:href="#ArialMT-32"/>
       <use x="250.244141" xlink:href="#ArialMT-35"/>
      </g>
     </g>
    </g>
    <g id="ytick_3">
     <g id="line2d_10">
      <path clip-path="url(#p7c0ad40478)" d="M 57.6 246.85228 
L 414.72 246.85228 
" style="fill:none;stroke:#ffffff;stroke-linecap:round;"/>
     </g>
     <g id="text_11">
      <!-- 0.0050 -->
      <g style="fill:#262626;" transform="translate(14.458906 250.789077)scale(0.11 -0.11)">
       <use xlink:href="#ArialMT-30"/>
       <use x="55.615234" xlink:href="#ArialMT-2e"/>
       <use x="83.398438" xlink:href="#ArialMT-30"/>
       <use x="139.013672" xlink:href="#ArialMT-30"/>
       <use x="194.628906" xlink:href="#ArialMT-35"/>
       <use x="250.244141" xlink:href="#ArialMT-30"/>
      </g>
     </g>
    </g>
    <g id="ytick_4">
     <g id="line2d_11">
      <path clip-path="url(#p7c0ad40478)" d="M 57.6 216.486421 
L 414.72 216.486421 
" style="fill:none;stroke:#ffffff;stroke-linecap:round;"/>
     </g>
     <g id="text_12">
      <!-- 0.0075 -->
      <g style="fill:#262626;" transform="translate(14.458906 220.423217)scale(0.11 -0.11)">
       <defs>
        <path d="M 303 3981 
L 303 4522 
L 3269 4522 
L 3269 4084 
Q 2831 3619 2401 2847 
Q 1972 2075 1738 1259 
Q 1569 684 1522 0 
L 944 0 
Q 953 541 1156 1306 
Q 1359 2072 1739 2783 
Q 2119 3494 2547 3981 
L 303 3981 
z
" id="ArialMT-37" transform="scale(0.015625)"/>
       </defs>
       <use xlink:href="#ArialMT-30"/>
       <use x="55.615234" xlink:href="#ArialMT-2e"/>
       <use x="83.398438" xlink:href="#ArialMT-30"/>
       <use x="139.013672" xlink:href="#ArialMT-30"/>
       <use x="194.628906" xlink:href="#ArialMT-37"/>
       <use x="250.244141" xlink:href="#ArialMT-35"/>
      </g>
     </g>
    </g>
    <g id="ytick_5">
     <g id="line2d_12">
      <path clip-path="url(#p7c0ad40478)" d="M 57.6 186.120561 
L 414.72 186.120561 
" style="fill:none;stroke:#ffffff;stroke-linecap:round;"/>
     </g>
     <g id="text_13">
      <!-- 0.0100 -->
      <g style="fill:#262626;" transform="translate(14.458906 190.057358)scale(0.11 -0.11)">
       <use xlink:href="#ArialMT-30"/>
       <use x="55.615234" xlink:href="#ArialMT-2e"/>
       <use x="83.398438" xlink:href="#ArialMT-30"/>
       <use x="139.013672" xlink:href="#ArialMT-31"/>
       <use x="194.628906" xlink:href="#ArialMT-30"/>
       <use x="250.244141" xlink:href="#ArialMT-30"/>
      </g>
     </g>
    </g>
    <g id="ytick_6">
     <g id="line2d_13">
      <path clip-path="url(#p7c0ad40478)" d="M 57.6 155.754701 
L 414.72 155.754701 
" style="fill:none;stroke:#ffffff;stroke-linecap:round;"/>
     </g>
     <g id="text_14">
      <!-- 0.0125 -->
      <g style="fill:#262626;" transform="translate(14.458906 159.691498)scale(0.11 -0.11)">
       <use xlink:href="#ArialMT-30"/>
       <use x="55.615234" xlink:href="#ArialMT-2e"/>
       <use x="83.398438" xlink:href="#ArialMT-30"/>
       <use x="139.013672" xlink:href="#ArialMT-31"/>
       <use x="194.628906" xlink:href="#ArialMT-32"/>
       <use x="250.244141" xlink:href="#ArialMT-35"/>
      </g>
     </g>
    </g>
    <g id="ytick_7">
     <g id="line2d_14">
      <path clip-path="url(#p7c0ad40478)" d="M 57.6 125.388841 
L 414.72 125.388841 
" style="fill:none;stroke:#ffffff;stroke-linecap:round;"/>
     </g>
     <g id="text_15">
      <!-- 0.0150 -->
      <g style="fill:#262626;" transform="translate(14.458906 129.325638)scale(0.11 -0.11)">
       <use xlink:href="#ArialMT-30"/>
       <use x="55.615234" xlink:href="#ArialMT-2e"/>
       <use x="83.398438" xlink:href="#ArialMT-30"/>
       <use x="139.013672" xlink:href="#ArialMT-31"/>
       <use x="194.628906" xlink:href="#ArialMT-35"/>
       <use x="250.244141" xlink:href="#ArialMT-30"/>
      </g>
     </g>
    </g>
    <g id="ytick_8">
     <g id="line2d_15">
      <path clip-path="url(#p7c0ad40478)" d="M 57.6 95.022981 
L 414.72 95.022981 
" style="fill:none;stroke:#ffffff;stroke-linecap:round;"/>
     </g>
     <g id="text_16">
      <!-- 0.0175 -->
      <g style="fill:#262626;" transform="translate(14.458906 98.959778)scale(0.11 -0.11)">
       <use xlink:href="#ArialMT-30"/>
       <use x="55.615234" xlink:href="#ArialMT-2e"/>
       <use x="83.398438" xlink:href="#ArialMT-30"/>
       <use x="139.013672" xlink:href="#ArialMT-31"/>
       <use x="194.628906" xlink:href="#ArialMT-37"/>
       <use x="250.244141" xlink:href="#ArialMT-35"/>
      </g>
     </g>
    </g>
    <g id="ytick_9">
     <g id="line2d_16">
      <path clip-path="url(#p7c0ad40478)" d="M 57.6 64.657122 
L 414.72 64.657122 
" style="fill:none;stroke:#ffffff;stroke-linecap:round;"/>
     </g>
     <g id="text_17">
      <!-- 0.0200 -->
      <g style="fill:#262626;" transform="translate(14.458906 68.593919)scale(0.11 -0.11)">
       <use xlink:href="#ArialMT-30"/>
       <use x="55.615234" xlink:href="#ArialMT-2e"/>
       <use x="83.398438" xlink:href="#ArialMT-30"/>
       <use x="139.013672" xlink:href="#ArialMT-32"/>
       <use x="194.628906" xlink:href="#ArialMT-30"/>
       <use x="250.244141" xlink:href="#ArialMT-30"/>
      </g>
     </g>
    </g>
    <g id="text_18">
     <!-- Density -->
     <g style="fill:#262626;" transform="translate(7.933281 194.53425)rotate(-90)scale(0.12 -0.12)">
      <defs>
       <path d="M 397 -1278 
L 334 -750 
Q 519 -800 656 -800 
Q 844 -800 956 -737 
Q 1069 -675 1141 -563 
Q 1194 -478 1313 -144 
Q 1328 -97 1363 -6 
L 103 3319 
L 709 3319 
L 1400 1397 
Q 1534 1031 1641 628 
Q 1738 1016 1872 1384 
L 2581 3319 
L 3144 3319 
L 1881 -56 
Q 1678 -603 1566 -809 
Q 1416 -1088 1222 -1217 
Q 1028 -1347 759 -1347 
Q 597 -1347 397 -1278 
z
" id="ArialMT-79" transform="scale(0.015625)"/>
      </defs>
      <use xlink:href="#ArialMT-44"/>
      <use x="72.216797" xlink:href="#ArialMT-65"/>
      <use x="127.832031" xlink:href="#ArialMT-6e"/>
      <use x="183.447266" xlink:href="#ArialMT-73"/>
      <use x="233.447266" xlink:href="#ArialMT-69"/>
      <use x="255.664062" xlink:href="#ArialMT-74"/>
      <use x="283.447266" xlink:href="#ArialMT-79"/>
     </g>
    </g>
   </g>
   <g id="PolyCollection_1">
    <defs>
     <path d="M 73.832727 -38.032422 
L 73.832727 -38.016 
L 75.464157 -38.016 
L 77.095587 -38.016 
L 78.727017 -38.016 
L 80.358447 -38.016 
L 81.989877 -38.016 
L 83.621307 -38.016 
L 85.252736 -38.016 
L 86.884166 -38.016 
L 88.515596 -38.016 
L 90.147026 -38.016 
L 91.778456 -38.016 
L 93.409886 -38.016 
L 95.041316 -38.016 
L 96.672746 -38.016 
L 98.304175 -38.016 
L 99.935605 -38.016 
L 101.567035 -38.016 
L 103.198465 -38.016 
L 104.829895 -38.016 
L 106.461325 -38.016 
L 108.092755 -38.016 
L 109.724185 -38.016 
L 111.355614 -38.016 
L 112.987044 -38.016 
L 114.618474 -38.016 
L 116.249904 -38.016 
L 117.881334 -38.016 
L 119.512764 -38.016 
L 121.144194 -38.016 
L 122.775624 -38.016 
L 124.407053 -38.016 
L 126.038483 -38.016 
L 127.669913 -38.016 
L 129.301343 -38.016 
L 130.932773 -38.016 
L 132.564203 -38.016 
L 134.195633 -38.016 
L 135.827063 -38.016 
L 137.458492 -38.016 
L 139.089922 -38.016 
L 140.721352 -38.016 
L 142.352782 -38.016 
L 143.984212 -38.016 
L 145.615642 -38.016 
L 147.247072 -38.016 
L 148.878502 -38.016 
L 150.509931 -38.016 
L 152.141361 -38.016 
L 153.772791 -38.016 
L 155.404221 -38.016 
L 157.035651 -38.016 
L 158.667081 -38.016 
L 160.298511 -38.016 
L 161.929941 -38.016 
L 163.56137 -38.016 
L 165.1928 -38.016 
L 166.82423 -38.016 
L 168.45566 -38.016 
L 170.08709 -38.016 
L 171.71852 -38.016 
L 173.34995 -38.016 
L 174.98138 -38.016 
L 176.61281 -38.016 
L 178.244239 -38.016 
L 179.875669 -38.016 
L 181.507099 -38.016 
L 183.138529 -38.016 
L 184.769959 -38.016 
L 186.401389 -38.016 
L 188.032819 -38.016 
L 189.664249 -38.016 
L 191.295678 -38.016 
L 192.927108 -38.016 
L 194.558538 -38.016 
L 196.189968 -38.016 
L 197.821398 -38.016 
L 199.452828 -38.016 
L 201.084258 -38.016 
L 202.715688 -38.016 
L 204.347117 -38.016 
L 205.978547 -38.016 
L 207.609977 -38.016 
L 209.241407 -38.016 
L 210.872837 -38.016 
L 212.504267 -38.016 
L 214.135697 -38.016 
L 215.767127 -38.016 
L 217.398556 -38.016 
L 219.029986 -38.016 
L 220.661416 -38.016 
L 222.292846 -38.016 
L 223.924276 -38.016 
L 225.555706 -38.016 
L 227.187136 -38.016 
L 228.818566 -38.016 
L 230.449995 -38.016 
L 232.081425 -38.016 
L 233.712855 -38.016 
L 235.344285 -38.016 
L 236.975715 -38.016 
L 238.607145 -38.016 
L 240.238575 -38.016 
L 241.870005 -38.016 
L 243.501434 -38.016 
L 245.132864 -38.016 
L 246.764294 -38.016 
L 248.395724 -38.016 
L 250.027154 -38.016 
L 251.658584 -38.016 
L 253.290014 -38.016 
L 254.921444 -38.016 
L 256.552873 -38.016 
L 258.184303 -38.016 
L 259.815733 -38.016 
L 261.447163 -38.016 
L 263.078593 -38.016 
L 264.710023 -38.016 
L 266.341453 -38.016 
L 267.972883 -38.016 
L 269.604312 -38.016 
L 271.235742 -38.016 
L 272.867172 -38.016 
L 274.498602 -38.016 
L 276.130032 -38.016 
L 277.761462 -38.016 
L 279.392892 -38.016 
L 281.024322 -38.016 
L 282.655751 -38.016 
L 284.287181 -38.016 
L 285.918611 -38.016 
L 287.550041 -38.016 
L 289.181471 -38.016 
L 290.812901 -38.016 
L 292.444331 -38.016 
L 294.075761 -38.016 
L 295.70719 -38.016 
L 297.33862 -38.016 
L 298.97005 -38.016 
L 300.60148 -38.016 
L 302.23291 -38.016 
L 303.86434 -38.016 
L 305.49577 -38.016 
L 307.1272 -38.016 
L 308.75863 -38.016 
L 310.390059 -38.016 
L 312.021489 -38.016 
L 313.652919 -38.016 
L 315.284349 -38.016 
L 316.915779 -38.016 
L 318.547209 -38.016 
L 320.178639 -38.016 
L 321.810069 -38.016 
L 323.441498 -38.016 
L 325.072928 -38.016 
L 326.704358 -38.016 
L 328.335788 -38.016 
L 329.967218 -38.016 
L 331.598648 -38.016 
L 333.230078 -38.016 
L 334.861508 -38.016 
L 336.492937 -38.016 
L 338.124367 -38.016 
L 339.755797 -38.016 
L 341.387227 -38.016 
L 343.018657 -38.016 
L 344.650087 -38.016 
L 346.281517 -38.016 
L 347.912947 -38.016 
L 349.544376 -38.016 
L 351.175806 -38.016 
L 352.807236 -38.016 
L 354.438666 -38.016 
L 356.070096 -38.016 
L 357.701526 -38.016 
L 359.332956 -38.016 
L 360.964386 -38.016 
L 362.595815 -38.016 
L 364.227245 -38.016 
L 365.858675 -38.016 
L 367.490105 -38.016 
L 369.121535 -38.016 
L 370.752965 -38.016 
L 372.384395 -38.016 
L 374.015825 -38.016 
L 375.647254 -38.016 
L 377.278684 -38.016 
L 378.910114 -38.016 
L 380.541544 -38.016 
L 382.172974 -38.016 
L 383.804404 -38.016 
L 385.435834 -38.016 
L 387.067264 -38.016 
L 388.698693 -38.016 
L 390.330123 -38.016 
L 391.961553 -38.016 
L 393.592983 -38.016 
L 395.224413 -38.016 
L 396.855843 -38.016 
L 398.487273 -38.016 
L 398.487273 -38.016646 
L 398.487273 -38.016646 
L 396.855843 -38.019408 
L 395.224413 -38.028272 
L 393.592983 -38.04616 
L 391.961553 -38.06658 
L 390.330123 -38.073885 
L 388.698693 -38.061205 
L 387.067264 -38.040091 
L 385.435834 -38.024761 
L 383.804404 -38.018174 
L 382.172974 -38.016368 
L 380.541544 -38.016043 
L 378.910114 -38.016003 
L 377.278684 -38.016001 
L 375.647254 -38.016006 
L 374.015825 -38.016073 
L 372.384395 -38.01658 
L 370.752965 -38.01921 
L 369.121535 -38.028646 
L 367.490105 -38.053983 
L 365.858675 -38.11343 
L 364.227245 -38.245489 
L 362.595815 -38.482233 
L 360.964386 -38.744955 
L 359.332956 -38.832778 
L 357.701526 -38.652659 
L 356.070096 -38.357618 
L 354.438666 -38.141746 
L 352.807236 -38.047716 
L 351.175806 -38.02148 
L 349.544376 -38.016648 
L 347.912947 -38.016053 
L 346.281517 -38.016003 
L 344.650087 -38.016 
L 343.018657 -38.016002 
L 341.387227 -38.016028 
L 339.755797 -38.016292 
L 338.124367 -38.018213 
L 336.492937 -38.028302 
L 334.861508 -38.066642 
L 333.230078 -38.170034 
L 331.598648 -38.357907 
L 329.967218 -38.560618 
L 328.335788 -38.628974 
L 326.704358 -38.497838 
L 325.072928 -38.278484 
L 323.441498 -38.114621 
L 321.810069 -38.041484 
L 320.178639 -38.020522 
L 318.547209 -38.01655 
L 316.915779 -38.016046 
L 315.284349 -38.016003 
L 313.652919 -38.016 
L 312.021489 -38.016 
L 310.390059 -38.016 
L 308.75863 -38.016 
L 307.1272 -38.016 
L 305.49577 -38.016 
L 303.86434 -38.016 
L 302.23291 -38.016 
L 300.60148 -38.016 
L 298.97005 -38.016 
L 297.33862 -38.016 
L 295.70719 -38.016 
L 294.075761 -38.016 
L 292.444331 -38.016 
L 290.812901 -38.016 
L 289.181471 -38.016 
L 287.550041 -38.016 
L 285.918611 -38.016 
L 284.287181 -38.016 
L 282.655751 -38.016 
L 281.024322 -38.016 
L 279.392892 -38.016 
L 277.761462 -38.016 
L 276.130032 -38.016 
L 274.498602 -38.016 
L 272.867172 -38.016 
L 271.235742 -38.016 
L 269.604312 -38.016 
L 267.972883 -38.016 
L 266.341453 -38.016 
L 264.710023 -38.016 
L 263.078593 -38.016 
L 261.447163 -38.016 
L 259.815733 -38.016 
L 258.184303 -38.016 
L 256.552873 -38.016 
L 254.921444 -38.016 
L 253.290014 -38.016007 
L 251.658584 -38.016079 
L 250.027154 -38.016616 
L 248.395724 -38.019285 
L 246.764294 -38.027942 
L 245.132864 -38.04563 
L 243.501434 -38.066165 
L 241.870005 -38.073959 
L 240.238575 -38.061696 
L 238.607145 -38.040585 
L 236.975715 -38.025026 
L 235.344285 -38.018262 
L 233.712855 -38.01639 
L 232.081425 -38.016088 
L 230.449995 -38.016383 
L 228.818566 -38.018336 
L 227.187136 -38.025996 
L 225.555706 -38.046013 
L 223.924276 -38.079877 
L 222.292846 -38.113365 
L 220.661416 -38.123198 
L 219.029986 -38.102291 
L 217.398556 -38.07047 
L 215.767127 -38.054104 
L 214.135697 -38.060694 
L 212.504267 -38.075353 
L 210.872837 -38.082863 
L 209.241407 -38.092922 
L 207.609977 -38.129269 
L 205.978547 -38.190889 
L 204.347117 -38.249147 
L 202.715688 -38.287099 
L 201.084258 -38.306482 
L 199.452828 -38.298045 
L 197.821398 -38.251367 
L 196.189968 -38.191889 
L 194.558538 -38.174726 
L 192.927108 -38.240713 
L 191.295678 -38.380268 
L 189.664249 -38.531992 
L 188.032819 -38.627844 
L 186.401389 -38.66427 
L 184.769959 -38.731716 
L 183.138529 -38.941195 
L 181.507099 -39.305678 
L 179.875669 -39.75171 
L 178.244239 -40.26417 
L 176.61281 -40.922266 
L 174.98138 -41.786484 
L 173.34995 -42.854083 
L 171.71852 -44.099983 
L 170.08709 -45.481466 
L 168.45566 -47.003222 
L 166.82423 -48.811952 
L 165.1928 -51.051316 
L 163.56137 -53.689247 
L 161.929941 -56.594462 
L 160.298511 -59.574373 
L 158.667081 -62.471976 
L 157.035651 -65.609089 
L 155.404221 -69.80493 
L 153.772791 -75.441536 
L 152.141361 -81.869979 
L 150.509931 -88.202009 
L 148.878502 -94.345995 
L 147.247072 -101.024811 
L 145.615642 -109.053262 
L 143.984212 -118.694284 
L 142.352782 -129.986895 
L 140.721352 -143.772394 
L 139.089922 -161.333649 
L 137.458492 -182.731475 
L 135.827063 -206.693989 
L 134.195633 -232.200548 
L 132.564203 -258.341164 
L 130.932773 -281.069638 
L 129.301343 -291.456 
L 127.669913 -280.940319 
L 126.038483 -249.820319 
L 124.407053 -208.239349 
L 122.775624 -168.250913 
L 121.144194 -136.79324 
L 119.512764 -114.98095 
L 117.881334 -101.168854 
L 116.249904 -93.971031 
L 114.618474 -92.16943 
L 112.987044 -92.759909 
L 111.355614 -91.98858 
L 109.724185 -88.603948 
L 108.092755 -84.001159 
L 106.461325 -79.335378 
L 104.829895 -74.039725 
L 103.198465 -67.605032 
L 101.567035 -61.557443 
L 99.935605 -58.081751 
L 98.304175 -57.517516 
L 96.672746 -58.462497 
L 95.041316 -59.278765 
L 93.409886 -58.778369 
L 91.778456 -56.870716 
L 90.147026 -55.098196 
L 88.515596 -55.119296 
L 86.884166 -56.278391 
L 85.252736 -55.898667 
L 83.621307 -52.429653 
L 81.989877 -47.179386 
L 80.358447 -42.546644 
L 78.727017 -39.739604 
L 77.095587 -38.512308 
L 75.464157 -38.121937 
L 73.832727 -38.032422 
z
" id="m6ec1bd78d2" style="stroke:#4c72b0;"/>
    </defs>
    <g clip-path="url(#p7c0ad40478)">
     <use style="fill:#4c72b0;fill-opacity:0.25;stroke:#4c72b0;" x="0" xlink:href="#m6ec1bd78d2" y="345.6"/>
    </g>
   </g>
   <g id="patch_3">
    <path d="M 57.6 307.584 
L 57.6 41.472 
" style="fill:none;stroke:#ffffff;stroke-linecap:square;stroke-linejoin:miter;stroke-width:1.25;"/>
   </g>
   <g id="patch_4">
    <path d="M 414.72 307.584 
L 414.72 41.472 
" style="fill:none;stroke:#ffffff;stroke-linecap:square;stroke-linejoin:miter;stroke-width:1.25;"/>
   </g>
   <g id="patch_5">
    <path d="M 57.6 307.584 
L 414.72 307.584 
" style="fill:none;stroke:#ffffff;stroke-linecap:square;stroke-linejoin:miter;stroke-width:1.25;"/>
   </g>
   <g id="patch_6">
    <path d="M 57.6 41.472 
L 414.72 41.472 
" style="fill:none;stroke:#ffffff;stroke-linecap:square;stroke-linejoin:miter;stroke-width:1.25;"/>
   </g>
  </g>
 </g>
 <defs>
  <clipPath id="p7c0ad40478">
   <rect height="266.112" width="357.12" x="57.6" y="41.472"/>
  </clipPath>
 </defs>
</svg>
